<svg width="88" height="31" viewBox="0 0 88 31" fill="none" xmlns="http://www.w3.org/2000/svg">
<rect width="88" height="31" fill="#11111B"/>
<g style="mix-blend-mode:plus-lighter" opacity="0.1">
<path d="M59 4H61V6H63V8H59V4Z" fill="#5888FF"/>
<path d="M50 8H48V10H46V12H50V8Z" fill="#5888FF"/>
<path d="M57 24H55V26H53V28H57V24Z" fill="#5888FF"/>
<path d="M69 27H67V25H65V23H69V27Z" fill="#5888FF"/>
<path d="M48 21H46V19H44V17H48V21Z" fill="#5888FF"/>
<path d="M40 8H42V6H44V4H40V8Z" fill="#5888FF"/>
<path d="M41 11H43V13H45V15H41V11Z" fill="#5888FF"/>
<path d="M22 7H24V5H26V3H22V7Z" fill="#5888FF"/>
<path d="M27 11H29V9H31V7H27V11Z" fill="#5888FF"/>
<path d="M9 5H7V7H5V9H9V5Z" fill="#5888FF"/>
<path d="M14 15H12V13H10V11H14V15Z" fill="#5888FF"/>
<path d="M18 10H16V8H14V6H18V10Z" fill="#5888FF"/>
<path d="M21 15H19V17H17V19H21V15Z" fill="#5888FF"/>
<path d="M20 9H22V11H24V13H20V9Z" fill="#5888FF"/>
<path d="M38 16H36V14H34V12H38V16Z" fill="#5888FF"/>
<path d="M37 8H35V6H33V4H37V8Z" fill="#5888FF"/>
</g>
<path fill-rule="evenodd" clip-rule="evenodd" d="M37 18V19H36V20H35V25H36V26H37V27H42V26H41H44V25V24H43V25H38V24H37V23H43V22V19H42V18H37ZM42 20V21H40V22H37V20H38V19H41V20H42Z" fill="white"/>
<path d="M31 14H32V13H33V15H31V14Z" fill="white"/>
<path d="M33 27H31L31 26H30V18H31L31 17H33V27Z" fill="white"/>
<path fill-rule="evenodd" clip-rule="evenodd" d="M27 13H26V19H22V20H21V21H20V25H21V26H22V27H27V26H28V14H27V13ZM26 25V21H23V22H22V24H23L23 25H26Z" fill="white"/>
<path d="M10 18H11V19H12V18H13H14H15V19H16V20H17V21H18V23.5V26H17V25V27H16V26V21H15V20H12V21H11V22V27H10V26H9V19H10V18Z" fill="white"/>
<path d="M5 14H6V13H7V15H5V14Z" fill="white"/>
<path d="M7 27H5L5 26H4V18H5L5 17H7V27Z" fill="white"/>
<path d="M1 1H87V2H1V1Z" fill="#B5B5DD" fill-opacity="0.25"/>
<path d="M1 29H87V30H1V29Z" fill="#B5B5DD" fill-opacity="0.1"/>
<path d="M86 2H87V29H86V2Z" fill="#B5B5DD" fill-opacity="0.25"/>
<path d="M1 2H2V29H1V2Z" fill="#B5B5DD" fill-opacity="0.1"/>
<path d="M53 5H54V6H55V7H56V8H58V9H67V8H68V7H69V6H70V5H72V11H73V19H72V24H73V25H71V7H70V8H69V10H67V11H58V10H56V9H55V8H54V11H53V17H52V25H51V26H50V21H51V16H52V9H53V5Z" fill="white"/>
<path d="M56 13H58V15H56V13Z" fill="white"/>
<path d="M65 14V16H67V14H65Z" fill="white"/>
<path d="M57 18H58V20H57V18Z" fill="white"/>
<path d="M59 21V20H58V21H59Z" fill="white"/>
<path d="M60 21V22H59V21H60Z" fill="white"/>
<path d="M61 20V21H60V20H61Z" fill="white"/>
<path d="M62 20H61V19H62V20Z" fill="white"/>
<path d="M63 21H62V20H63V21Z" fill="white"/>
<path d="M64 21V22H63V21H64Z" fill="white"/>
<path d="M64 21V19H65V21H64Z" fill="white"/>
<path d="M53 17H52V19H50V21H53V17Z" fill="white"/>
<path d="M73 14H74V16H73V14Z" fill="#5888FF"/>
<path d="M75 5H77L77 11H78L78 19H77V24H78V25H76V7H75V8H74V10H72V8H73V7H74V6H75V5Z" fill="#5888FF"/>
<path d="M78 14H79V16H78V14Z" fill="#A6FFB0"/>
<path d="M80 5H82L82 11H83L83 19H82V24H83V25H81V7H80V8H79V10H77V8H78V7H79V6H80V5Z" fill="#A6FFB0"/>
</svg>
