<svg xmlns="http://www.w3.org/2000/svg" xmlns:xlink="http://www.w3.org/1999/xlink" width="88" height="31"><title>jb&apos;s sitebutton</title><style>text{font-size:1.1rem;font-family:&quot;Arial&quot;,&quot;FreeSans&quot;,sans-serif;font-weight:700}</style><rect width="88" height="31" fill="#343a40"/><svg x="6"><text x="5" y="20">j <animate attributeName="fill" dur="3s" repeatCount="indefinite" values="#00ffea;#0084ff;#00ffea"/> <animateMotion attributeName="transform" begin="0s" dur="3s" repeatCount="indefinite"> <mpath xlink:href="#path_j"/></animateMotion></text><path id="path_j" fill="none" d="M 0 0 C 0 -1 0 -1 0 -1 C 0 1 0 1 0 1 Z M 0 1 C 0 1 0 1 0 1 C 0 -1 0 -1 0 -1 Z"/><text x="10" y="20">b <animate attributeName="fill" begin="-1.8s" dur="3s" repeatCount="indefinite" values="#00ffea;#0084ff;#00ffea"/> <animateMotion attributeName="transform" begin="0.3s" dur="3s" repeatCount="indefinite"> <mpath xlink:href="#path_b"/></animateMotion></text><path id="path_b" fill="none" d="M 0 0 C 0 1 0 1 0 1 C 0 -1 0 -1 0 -1 Z M 0 -1 C 0 -1 0 -1 0 -1 C 0 1 0 1 0 1 Z"/><text x="20" y="20">&apos; <animate attributeName="fill" begin="-1.6s" dur="3s" repeatCount="indefinite" values="#00ffea;#0084ff;#00ffea"/> <animateMotion attributeName="transform" begin="0.4s" dur="3s" repeatCount="indefinite"> <mpath xlink:href="#path_apostrophe"/></animateMotion></text><path id="path_apostrophe" fill="none" d="M 0 0 C 0 -1 0 -1 0 -1 C 0 1 0 1 0 1 Z M 0 1 C 0 1 0 1 0 1 C 0 -1 0 -1 0 -1 Z"/><text x="25" y="20">s <animate attributeName="fill" begin="-1.4s" dur="3s" repeatCount="indefinite" values="#00ffea;#0084ff;#00ffea"/> <animateMotion attributeName="transform" begin="0.6s" dur="3s" repeatCount="indefinite"> <mpath xlink:href="#path_s1"/></animateMotion></text><path id="path_s1" fill="none" d="M 0 0 C 0 1 0 1 0 1 C 0 -1 0 -1 0 -1 Z M 0 -1 C 0 -1 0 -1 0 -1 C 0 1 0 1 0 1 Z"/><text x="40" y="20">s <animate attributeName="fill" begin="-1.3s" dur="3s" repeatCount="indefinite" values="#00ffea;#0084ff;#00ffea"/> <animateMotion attributeName="transform" begin="0.8s" dur="3s" repeatCount="indefinite"> <mpath xlink:href="#path_s2"/></animateMotion></text><path id="path_s2" fill="none" d="M 0 0 C 0 -1 0 -1 0 -1 C 0 1 0 1 0 1 Z M 0 1 C 0 1 0 1 0 1 C 0 -1 0 -1 0 -1 Z"/><text x="50" y="20">i <animate attributeName="fill" begin="-1.0s" dur="3s" repeatCount="indefinite" values="#00ffea;#0084ff;#00ffea"/> <animateMotion attributeName="transform" begin="1.0s" dur="3s" repeatCount="indefinite"> <mpath xlink:href="#path_i"/></animateMotion></text><path id="path_i" fill="none" d="M 0 0 C 0 1 0 1 0 1 C 0 -1 0 -1 0 -1 Z M 0 -1 C 0 -1 0 -1 0 -1 C 0 1 0 1 0 1 Z"/><text x="55" y="20">t <animate attributeName="fill" begin="-0.8s" dur="3s" repeatCount="indefinite" values="#00ffea;#0084ff;#00ffea"/> <animateMotion attributeName="transform" begin="1.3s" dur="3s" repeatCount="indefinite"> <mpath xlink:href="#path_t"/></animateMotion></text><path id="path_t" fill="none" d="M 0 0 C 0 -1 0 -1 0 -1 C 0 1 0 1 0 1 Z M 0 1 C 0 1 0 1 0 1 C 0 -1 0 -1 0 -1 Z"/><text x="62" y="20">e <animate attributeName="fill" begin="-0.6s" dur="3s" repeatCount="indefinite" values="#00ffea;#0084ff;#00ffea"/> <animateMotion attributeName="transform" begin="1.4s" dur="3s" repeatCount="indefinite"> <mpath xlink:href="#path_e"/></animateMotion></text><path id="path_e" fill="none" d="M 0 0 C 0 1 0 1 0 1 C 0 -1 0 -1 0 -1 Z M 0 -1 C 0 -1 0 -1 0 -1 C 0 1 0 1 0 1 Z"/></svg><path fill="#ced4da" d="M 0 0 L 88 0 L 86 2 L 2 2 L 2 29 L 0 31 Z"/><path fill="#1d1f20" d="M 88 31 L 0 31 L 2 29 L 86 29 L 86 2 L 88 0 Z"/></svg>