<?xml version="1.0" encoding="UTF-8" standalone="no"?>
<!DOCTYPE svg PUBLIC "-//W3C//DTD SVG 1.1//EN" "http://www.w3.org/Graphics/SVG/1.1/DTD/svg11.dtd">
<svg width="100%" height="100%" viewBox="0 0 88 31" version="1.1" xmlns="http://www.w3.org/2000/svg" xmlns:xlink="http://www.w3.org/1999/xlink" xml:space="preserve" xmlns:serif="http://www.serif.com/" style="fill-rule:evenodd;clip-rule:evenodd;stroke-miterlimit:2;">
    <g transform="matrix(0.661538,0,0,0.707317,0.338462,0.292683)">
        <clipPath id="_clip1">
            <path d="M116.5,1C124.508,1 131,7.492 131,15.5L131,42L15.5,42C7.491,42 1,35.509 1,27.5L1,1L116.5,1Z"/>
        </clipPath>
        <g clip-path="url(#_clip1)">
            <rect x="0" y="0" width="132" height="43" style="fill:white;fill-rule:nonzero;"/>
        </g>
    </g>
    <g transform="matrix(0.661538,0,0,0.707317,0.338462,0.292683)">
        <path d="M116.5,1C124.508,1 131,7.492 131,15.5L131,42L15.5,42C7.491,42 1,35.509 1,27.5L1,1L116.5,1Z" style="fill:none;stroke:black;stroke-width:1.46px;"/>
    </g>
    <g transform="matrix(1,0,0,1,-5,-6.5)">
        <clipPath id="_clip2">
            <path d="M28.349,24.658C24.883,27.465 19.926,27.465 16.46,24.658L17.8,23.003C20.485,25.177 24.324,25.177 27.009,23.003L28.349,24.658Z"/>
        </clipPath>
        <g clip-path="url(#_clip2)">
            <rect x="15.46" y="22.003" width="13.889" height="6.462" style="fill-rule:nonzero;"/>
        </g>
    </g>
    <g transform="matrix(1,0,0,1,-5,-6.5)">
        <clipPath id="_clip3">
            <rect x="17.904" y="18.137" width="2.129" height="2.877"/>
        </clipPath>
        <g clip-path="url(#_clip3)">
            <rect x="16.904" y="17.137" width="4.129" height="4.877" style="fill-rule:nonzero;"/>
        </g>
    </g>
    <g transform="matrix(1,0,0,1,-5,-6.5)">
        <clipPath id="_clip4">
            <rect x="24.512" y="18.137" width="2.129" height="2.877"/>
        </clipPath>
        <g clip-path="url(#_clip4)">
            <rect x="23.512" y="17.137" width="4.129" height="4.877" style="fill-rule:nonzero;"/>
        </g>
    </g>
    <g transform="matrix(1,0,0,1,-5,-6.5)">
        <clipPath id="_clip5">
            <path d="M22,33.5C28.351,33.5 33.5,28.352 33.5,22C33.5,15.649 28.351,10.5 22,10.5C15.648,10.5 10.5,15.649 10.5,22C10.5,28.352 15.648,33.5 22,33.5ZM22,31.371C27.175,31.371 31.37,27.176 31.37,22C31.37,16.825 27.175,12.63 22,12.63C16.824,12.63 12.629,16.825 12.629,22C12.629,27.176 16.824,31.371 22,31.371Z"/>
        </clipPath>
        <g clip-path="url(#_clip5)">
            <rect x="9.5" y="9.5" width="25" height="25" style="fill-rule:nonzero;"/>
        </g>
    </g>
    <g transform="matrix(0.560368,0,0,0.560368,8.80404,2.897596)">
        <clipPath id="_clip6">
            <path d="M102.094,32.586L97.507,19.5L94.45,19.5L89.828,32.586L92.657,32.586L93.553,29.896L98.325,29.896L99.159,32.586L102.094,32.586ZM95.952,22.492L97.569,27.641L94.283,27.641L95.952,22.492Z"/>
        </clipPath>
        <g clip-path="url(#_clip6)">
            <rect x="88.828" y="18.5" width="14.266" height="15.086" style="fill-rule:nonzero;"/>
        </g>
    </g>
    <g transform="matrix(0.560368,0,0,0.560368,8.80404,2.897596)">
        <clipPath id="_clip7">
            <path d="M74.102,22.696C75.361,22.696 76.345,23.155 77.054,24.072C77.769,24.99 78.126,26.173 78.126,27.623C78.126,29.126 77.774,30.372 77.072,31.361C76.369,32.349 75.387,32.843 74.128,32.843C73.337,32.843 72.702,32.683 72.221,32.364C71.934,32.174 71.624,31.843 71.29,31.369L71.29,32.586L68.838,32.586L68.838,19.518L71.334,19.518L71.334,24.17C71.65,23.72 71.999,23.377 72.379,23.14C72.83,22.844 73.405,22.696 74.102,22.696ZM73.46,30.757C74.105,30.757 74.605,30.493 74.963,29.967C75.32,29.44 75.499,28.748 75.499,27.889C75.499,27.203 75.411,26.635 75.235,26.185C74.901,25.333 74.286,24.907 73.39,24.907C72.482,24.907 71.858,25.324 71.518,26.158C71.343,26.602 71.255,27.176 71.255,27.881C71.255,28.709 71.436,29.396 71.799,29.94C72.163,30.485 72.716,30.757 73.46,30.757Z"/>
        </clipPath>
        <g clip-path="url(#_clip7)">
            <rect x="67.838" y="18.518" width="11.288" height="15.325" style="fill-rule:nonzero;"/>
        </g>
    </g>
    <g transform="matrix(0.560368,0,0,0.560368,8.80404,2.897596)">
        <clipPath id="_clip8">
            <path d="M60.818,32.097C60.537,31.807 60.396,31.361 60.396,30.757L60.396,24.8L59.06,24.8L59.06,22.998L60.396,22.998L60.396,20.299L62.874,20.299L62.874,22.998L64.429,22.998L64.429,24.8L62.874,24.8L62.874,29.914C62.874,30.31 62.924,30.559 63.023,30.659C63.123,30.754 63.427,30.801 63.937,30.801L64.174,30.801C64.262,30.795 64.347,30.789 64.429,30.783L64.429,32.674L63.243,32.719C62.06,32.76 61.251,32.553 60.818,32.097Z"/>
        </clipPath>
        <g clip-path="url(#_clip8)">
            <rect x="58.06" y="19.299" width="7.369" height="14.461" style="fill-rule:nonzero;"/>
        </g>
    </g>
    <g transform="matrix(0.560368,0,0,0.560368,8.80404,2.897596)">
        <clipPath id="_clip9">
            <path d="M58.963,27.765C58.963,29.186 58.559,30.402 57.75,31.414C56.942,32.42 55.715,32.923 54.069,32.923C52.423,32.923 51.195,32.42 50.387,31.414C49.579,30.402 49.175,29.186 49.175,27.765C49.175,26.369 49.579,25.158 50.387,24.134C51.195,23.111 52.423,22.599 54.069,22.599C55.715,22.599 56.942,23.111 57.75,24.134C58.559,25.158 58.963,26.369 58.963,27.765ZM54.06,30.801C54.792,30.801 55.355,30.538 55.747,30.011C56.139,29.484 56.336,28.736 56.336,27.765C56.336,26.795 56.139,26.049 55.747,25.528C55.355,25.001 54.792,24.738 54.06,24.738C53.328,24.738 52.762,25.001 52.364,25.528C51.972,26.049 51.775,26.795 51.775,27.765C51.775,28.736 51.972,29.484 52.364,30.011C52.762,30.538 53.328,30.801 54.06,30.801Z"/>
        </clipPath>
        <g clip-path="url(#_clip9)">
            <rect x="48.175" y="21.599" width="11.788" height="12.324" style="fill-rule:nonzero;"/>
        </g>
    </g>
    <g transform="matrix(0.560368,0,0,0.560368,8.80404,2.897596)">
        <clipPath id="_clip10">
            <path d="M47.214,23.469C46.588,22.942 45.779,22.679 44.789,22.679C43.998,22.679 43.345,22.874 42.83,23.264C42.543,23.483 42.238,23.841 41.916,24.339L41.916,22.927L39.5,22.927L39.5,32.586L41.995,32.586L41.995,27.348C41.995,26.75 42.077,26.259 42.241,25.874C42.557,25.146 43.14,24.782 43.99,24.782C44.681,24.782 45.149,25.031 45.395,25.528C45.53,25.8 45.598,26.191 45.598,26.7L45.598,32.586L48.163,32.586L48.163,26.07C48.163,24.856 47.847,23.989 47.214,23.469Z"/>
        </clipPath>
        <g clip-path="url(#_clip10)">
            <rect x="38.5" y="21.679" width="10.663" height="11.907" style="fill-rule:nonzero;"/>
        </g>
    </g>
    <g transform="matrix(0.560368,0,0,0.560368,8.80404,2.897596)">
        <clipPath id="_clip11">
            <path d="M79.91,34.459L79.594,34.441L79.594,36.465C79.863,36.483 80.066,36.492 80.2,36.492C80.335,36.497 80.514,36.5 80.736,36.5C81.843,36.5 82.582,36.279 82.951,35.835C83.32,35.397 83.82,34.26 84.453,32.426L87.739,22.909L85.077,22.909L83.1,30.047L81.009,22.909L78.223,22.909L81.738,33.012C81.761,33.083 81.709,33.278 81.58,33.598C81.457,33.917 81.322,34.127 81.176,34.228C81.023,34.334 80.836,34.402 80.613,34.432C80.391,34.462 80.156,34.471 79.91,34.459Z"/>
        </clipPath>
        <g clip-path="url(#_clip11)">
            <rect x="77.223" y="21.909" width="11.516" height="15.591" style="fill-rule:nonzero;"/>
        </g>
    </g>
    <g transform="matrix(0.560368,0,0,0.560368,8.80404,2.897596)">
        <clipPath id="_clip12">
            <path d="M104.402,21.726L104.402,30.363L102.806,30.363L102.806,32.589L108.5,32.589L108.5,30.363L107.09,30.363L107.09,21.726L108.5,21.726L108.5,19.5L102.806,19.5L102.806,21.726L104.402,21.726Z"/>
        </clipPath>
        <g clip-path="url(#_clip12)">
            <rect x="101.806" y="18.5" width="7.694" height="15.089" style="fill-rule:nonzero;"/>
        </g>
    </g>
    <g transform="matrix(1,0,0,1,0.720458,0)">
        <path d="M32.258,10.939L32.74,11.002C32.688,11.335 32.553,11.595 32.335,11.783C32.118,11.971 31.851,12.065 31.535,12.065C31.139,12.065 30.82,11.936 30.579,11.677C30.339,11.418 30.218,11.047 30.218,10.563C30.218,10.25 30.27,9.977 30.374,9.742C30.477,9.508 30.635,9.332 30.847,9.215C31.058,9.097 31.289,9.039 31.538,9.039C31.852,9.039 32.11,9.118 32.309,9.277C32.509,9.436 32.638,9.662 32.694,9.955L32.217,10.029C32.171,9.834 32.091,9.688 31.975,9.59C31.86,9.491 31.721,9.442 31.557,9.442C31.31,9.442 31.109,9.531 30.954,9.708C30.8,9.885 30.723,10.166 30.723,10.549C30.723,10.938 30.797,11.221 30.946,11.397C31.095,11.574 31.29,11.662 31.53,11.662C31.722,11.662 31.883,11.603 32.012,11.485C32.141,11.367 32.223,11.185 32.258,10.939Z" style="fill-rule:nonzero;"/>
        <path d="M33.155,12L33.155,9.104L33.596,9.104L33.596,9.543C33.709,9.338 33.813,9.202 33.909,9.137C34.004,9.072 34.109,9.039 34.224,9.039C34.389,9.039 34.557,9.092 34.728,9.197L34.559,9.652C34.439,9.581 34.319,9.546 34.199,9.546C34.092,9.546 33.995,9.578 33.91,9.643C33.825,9.707 33.764,9.797 33.727,9.911C33.673,10.086 33.646,10.277 33.646,10.484L33.646,12L33.155,12Z" style="fill-rule:nonzero;"/>
        <path d="M36.909,11.643C36.728,11.797 36.553,11.906 36.384,11.97C36.216,12.034 36.036,12.065 35.843,12.065C35.525,12.065 35.281,11.988 35.11,11.832C34.939,11.677 34.853,11.478 34.853,11.237C34.853,11.095 34.886,10.965 34.95,10.848C35.015,10.731 35.099,10.637 35.204,10.566C35.308,10.495 35.426,10.441 35.557,10.405C35.653,10.379 35.799,10.355 35.993,10.331C36.389,10.284 36.681,10.228 36.868,10.162C36.87,10.095 36.871,10.052 36.871,10.034C36.871,9.834 36.825,9.693 36.732,9.611C36.607,9.501 36.42,9.445 36.173,9.445C35.942,9.445 35.772,9.486 35.662,9.566C35.552,9.647 35.471,9.791 35.418,9.996L34.938,9.93C34.982,9.725 35.053,9.559 35.153,9.433C35.253,9.307 35.398,9.209 35.587,9.141C35.776,9.073 35.995,9.039 36.244,9.039C36.491,9.039 36.692,9.068 36.847,9.126C37.001,9.184 37.115,9.257 37.187,9.346C37.26,9.434 37.311,9.545 37.34,9.68C37.357,9.763 37.365,9.914 37.365,10.132L37.365,10.787C37.365,11.243 37.375,11.531 37.396,11.652C37.417,11.773 37.458,11.889 37.52,12L37.007,12C36.957,11.898 36.924,11.779 36.909,11.643ZM36.868,10.547C36.69,10.619 36.423,10.681 36.067,10.732C35.865,10.761 35.722,10.794 35.639,10.83C35.555,10.867 35.491,10.92 35.445,10.99C35.4,11.06 35.377,11.137 35.377,11.223C35.377,11.354 35.426,11.463 35.526,11.55C35.625,11.637 35.77,11.681 35.96,11.681C36.15,11.681 36.318,11.64 36.465,11.557C36.612,11.474 36.72,11.361 36.789,11.217C36.842,11.107 36.868,10.943 36.868,10.727L36.868,10.547Z" style="fill-rule:nonzero;"/>
        <path d="M38.243,12L38.243,9.486L37.809,9.486L37.809,9.104L38.243,9.104L38.243,8.796C38.243,8.602 38.26,8.457 38.294,8.363C38.342,8.235 38.425,8.132 38.544,8.053C38.663,7.974 38.83,7.935 39.044,7.935C39.182,7.935 39.335,7.951 39.502,7.984L39.429,8.412C39.327,8.394 39.231,8.384 39.14,8.384C38.991,8.384 38.885,8.416 38.823,8.48C38.762,8.544 38.731,8.663 38.731,8.837L38.731,9.104L39.295,9.104L39.295,9.486L38.731,9.486L38.731,12L38.243,12Z" style="fill-rule:nonzero;"/>
        <path d="M40.748,11.561L40.819,11.995C40.681,12.024 40.558,12.038 40.449,12.038C40.27,12.038 40.132,12.01 40.034,11.954C39.936,11.897 39.867,11.823 39.827,11.731C39.787,11.64 39.767,11.446 39.767,11.152L39.767,9.486L39.407,9.486L39.407,9.104L39.767,9.104L39.767,8.387L40.255,8.093L40.255,9.104L40.748,9.104L40.748,9.486L40.255,9.486L40.255,11.179C40.255,11.319 40.264,11.409 40.281,11.449C40.298,11.489 40.326,11.521 40.365,11.545C40.404,11.568 40.46,11.58 40.533,11.58C40.588,11.58 40.659,11.574 40.748,11.561Z" style="fill-rule:nonzero;"/>
        <path d="M43.211,11.067L43.718,11.13C43.638,11.426 43.49,11.656 43.273,11.82C43.057,11.984 42.781,12.065 42.444,12.065C42.021,12.065 41.685,11.935 41.437,11.674C41.189,11.413 41.065,11.047 41.065,10.577C41.065,10.09 41.19,9.711 41.441,9.442C41.692,9.173 42.017,9.039 42.417,9.039C42.804,9.039 43.121,9.171 43.366,9.434C43.611,9.698 43.734,10.069 43.734,10.547C43.734,10.576 43.733,10.619 43.731,10.678L41.572,10.678C41.59,10.996 41.68,11.239 41.842,11.408C42.004,11.577 42.205,11.662 42.447,11.662C42.627,11.662 42.781,11.615 42.908,11.52C43.035,11.426 43.136,11.275 43.211,11.067ZM41.599,10.274L43.216,10.274C43.194,10.03 43.132,9.848 43.031,9.726C42.874,9.537 42.672,9.442 42.423,9.442C42.197,9.442 42.008,9.518 41.854,9.669C41.701,9.82 41.616,10.021 41.599,10.274Z" style="fill-rule:nonzero;"/>
        <path d="M46.213,12L46.213,11.635C46.029,11.922 45.759,12.065 45.403,12.065C45.172,12.065 44.96,12.002 44.766,11.875C44.573,11.747 44.423,11.57 44.316,11.342C44.21,11.113 44.157,10.851 44.157,10.555C44.157,10.266 44.205,10.004 44.301,9.768C44.398,9.533 44.542,9.352 44.735,9.227C44.928,9.102 45.143,9.039 45.381,9.039C45.556,9.039 45.711,9.076 45.847,9.149C45.984,9.223 46.095,9.319 46.18,9.437L46.18,8.003L46.668,8.003L46.668,12L46.213,12ZM44.661,10.555C44.661,10.926 44.739,11.203 44.896,11.387C45.052,11.57 45.237,11.662 45.449,11.662C45.664,11.662 45.846,11.574 45.996,11.399C46.146,11.223 46.221,10.956 46.221,10.596C46.221,10.2 46.145,9.909 45.992,9.723C45.839,9.538 45.651,9.445 45.427,9.445C45.209,9.445 45.027,9.534 44.881,9.712C44.734,9.89 44.661,10.171 44.661,10.555Z" style="fill-rule:nonzero;"/>
        <path d="M49.444,12L48.988,12L48.988,8.003L49.479,8.003L49.479,9.429C49.686,9.169 49.951,9.039 50.273,9.039C50.451,9.039 50.619,9.075 50.778,9.147C50.938,9.218 51.068,9.319 51.171,9.449C51.274,9.579 51.354,9.736 51.412,9.92C51.471,10.103 51.5,10.299 51.5,10.509C51.5,11.005 51.377,11.388 51.132,11.659C50.886,11.93 50.592,12.065 50.248,12.065C49.906,12.065 49.638,11.923 49.444,11.637L49.444,12ZM49.438,10.53C49.438,10.878 49.486,11.128 49.58,11.283C49.735,11.536 49.944,11.662 50.207,11.662C50.422,11.662 50.607,11.569 50.763,11.382C50.92,11.196 50.998,10.918 50.998,10.549C50.998,10.171 50.923,9.892 50.773,9.712C50.623,9.532 50.442,9.442 50.229,9.442C50.015,9.442 49.829,9.536 49.673,9.722C49.516,9.908 49.438,10.178 49.438,10.53Z" style="fill-rule:nonzero;"/>
        <path d="M52.075,13.115L52.02,12.654C52.128,12.683 52.221,12.698 52.301,12.698C52.41,12.698 52.498,12.68 52.563,12.643C52.628,12.607 52.682,12.556 52.724,12.491C52.755,12.442 52.805,12.32 52.874,12.125C52.883,12.098 52.898,12.058 52.918,12.005L51.819,9.104L52.348,9.104L52.95,10.781C53.028,10.994 53.098,11.217 53.16,11.452C53.217,11.227 53.284,11.007 53.362,10.792L53.981,9.104L54.472,9.104L53.37,12.049C53.252,12.367 53.16,12.586 53.095,12.706C53.007,12.868 52.908,12.987 52.795,13.062C52.682,13.137 52.548,13.175 52.391,13.175C52.297,13.175 52.191,13.155 52.075,13.115Z" style="fill-rule:nonzero;"/>
        <path d="M56.44,12L56.44,8.003L56.931,8.003L56.931,9.437C57.16,9.172 57.449,9.039 57.798,9.039C58.013,9.039 58.199,9.081 58.357,9.166C58.515,9.25 58.628,9.367 58.697,9.516C58.765,9.665 58.799,9.881 58.799,10.165L58.799,12L58.308,12L58.308,10.165C58.308,9.92 58.255,9.741 58.149,9.629C58.042,9.517 57.892,9.461 57.697,9.461C57.552,9.461 57.415,9.499 57.287,9.575C57.159,9.65 57.067,9.752 57.013,9.881C56.958,10.01 56.931,10.189 56.931,10.416L56.931,12L56.44,12Z" style="fill-rule:nonzero;"/>
        <path d="M61.444,12L61.444,11.575C61.218,11.902 60.912,12.065 60.525,12.065C60.354,12.065 60.195,12.033 60.046,11.967C59.898,11.902 59.788,11.82 59.716,11.721C59.645,11.621 59.594,11.5 59.565,11.357C59.545,11.26 59.535,11.107 59.535,10.898L59.535,9.104L60.026,9.104L60.026,10.71C60.026,10.967 60.036,11.139 60.056,11.228C60.087,11.357 60.152,11.459 60.252,11.532C60.352,11.606 60.476,11.643 60.623,11.643C60.77,11.643 60.908,11.605 61.037,11.53C61.167,11.454 61.258,11.352 61.312,11.222C61.365,11.092 61.392,10.903 61.392,10.656L61.392,9.104L61.883,9.104L61.883,12L61.444,12Z" style="fill-rule:nonzero;"/>
        <path d="M62.652,12L62.652,9.104L63.091,9.104L63.091,9.511C63.182,9.369 63.302,9.255 63.453,9.168C63.604,9.082 63.776,9.039 63.969,9.039C64.183,9.039 64.359,9.083 64.496,9.172C64.633,9.262 64.73,9.386 64.787,9.546C65.016,9.208 65.314,9.039 65.681,9.039C65.968,9.039 66.189,9.118 66.344,9.277C66.498,9.436 66.575,9.681 66.575,10.012L66.575,12L66.087,12L66.087,10.176C66.087,9.98 66.071,9.838 66.04,9.752C66.008,9.666 65.95,9.596 65.866,9.543C65.783,9.491 65.685,9.464 65.572,9.464C65.368,9.464 65.199,9.532 65.065,9.667C64.93,9.803 64.863,10.02 64.863,10.318L64.863,12L64.372,12L64.372,10.119C64.372,9.9 64.332,9.737 64.252,9.628C64.172,9.519 64.041,9.464 63.86,9.464C63.721,9.464 63.594,9.501 63.476,9.573C63.359,9.646 63.274,9.752 63.222,9.892C63.169,10.032 63.142,10.234 63.142,10.498L63.142,12L62.652,12Z" style="fill-rule:nonzero;"/>
        <path d="M69.193,11.643C69.011,11.797 68.836,11.906 68.668,11.97C68.5,12.034 68.319,12.065 68.127,12.065C67.809,12.065 67.564,11.988 67.393,11.832C67.222,11.677 67.137,11.478 67.137,11.237C67.137,11.095 67.169,10.965 67.234,10.848C67.298,10.731 67.383,10.637 67.487,10.566C67.592,10.495 67.71,10.441 67.84,10.405C67.937,10.379 68.082,10.355 68.277,10.331C68.673,10.284 68.965,10.228 69.152,10.162C69.154,10.095 69.155,10.052 69.155,10.034C69.155,9.834 69.108,9.693 69.016,9.611C68.89,9.501 68.704,9.445 68.457,9.445C68.226,9.445 68.055,9.486 67.945,9.566C67.835,9.647 67.754,9.791 67.701,9.996L67.222,9.93C67.265,9.725 67.337,9.559 67.437,9.433C67.537,9.307 67.681,9.209 67.87,9.141C68.06,9.073 68.279,9.039 68.528,9.039C68.775,9.039 68.976,9.068 69.13,9.126C69.285,9.184 69.398,9.257 69.471,9.346C69.544,9.434 69.595,9.545 69.624,9.68C69.64,9.763 69.648,9.914 69.648,10.132L69.648,10.787C69.648,11.243 69.659,11.531 69.68,11.652C69.701,11.773 69.742,11.889 69.804,12L69.291,12C69.24,11.898 69.207,11.779 69.193,11.643ZM69.152,10.547C68.974,10.619 68.707,10.681 68.35,10.732C68.149,10.761 68.006,10.794 67.922,10.83C67.839,10.867 67.774,10.92 67.729,10.99C67.683,11.06 67.661,11.137 67.661,11.223C67.661,11.354 67.71,11.463 67.809,11.55C67.908,11.637 68.053,11.681 68.244,11.681C68.433,11.681 68.601,11.64 68.748,11.557C68.896,11.474 69.004,11.361 69.073,11.217C69.126,11.107 69.152,10.943 69.152,10.727L69.152,10.547Z" style="fill-rule:nonzero;"/>
        <path d="M70.409,12L70.409,9.104L70.851,9.104L70.851,9.516C71.063,9.198 71.371,9.039 71.772,9.039C71.947,9.039 72.107,9.07 72.254,9.133C72.4,9.196 72.509,9.278 72.582,9.38C72.655,9.481 72.706,9.602 72.735,9.742C72.753,9.833 72.762,9.992 72.762,10.219L72.762,12L72.271,12L72.271,10.239C72.271,10.039 72.252,9.889 72.214,9.79C72.176,9.691 72.108,9.612 72.011,9.553C71.914,9.494 71.8,9.464 71.669,9.464C71.46,9.464 71.279,9.531 71.127,9.663C70.976,9.796 70.9,10.048 70.9,10.419L70.9,12L70.409,12Z" style="fill-rule:nonzero;"/>
        <path d="M73.318,11.136L73.804,11.059C73.831,11.254 73.907,11.403 74.031,11.506C74.156,11.61 74.33,11.662 74.554,11.662C74.779,11.662 74.946,11.616 75.055,11.524C75.164,11.432 75.219,11.325 75.219,11.201C75.219,11.09 75.171,11.003 75.074,10.939C75.007,10.896 74.84,10.84 74.573,10.773C74.213,10.682 73.963,10.603 73.824,10.537C73.685,10.471 73.58,10.379 73.508,10.262C73.436,10.145 73.4,10.015 73.4,9.873C73.4,9.744 73.43,9.625 73.489,9.515C73.548,9.405 73.628,9.313 73.73,9.241C73.806,9.184 73.91,9.137 74.042,9.097C74.174,9.058 74.315,9.039 74.466,9.039C74.693,9.039 74.893,9.072 75.065,9.137C75.237,9.202 75.363,9.291 75.445,9.403C75.527,9.515 75.583,9.664 75.614,9.851L75.134,9.917C75.112,9.768 75.049,9.651 74.945,9.568C74.84,9.484 74.693,9.442 74.502,9.442C74.276,9.442 74.115,9.48 74.019,9.554C73.923,9.629 73.875,9.716 73.875,9.816C73.875,9.88 73.895,9.937 73.935,9.988C73.975,10.04 74.037,10.084 74.123,10.119C74.172,10.137 74.316,10.179 74.556,10.244C74.903,10.337 75.146,10.413 75.283,10.472C75.42,10.531 75.528,10.617 75.606,10.729C75.684,10.842 75.723,10.982 75.723,11.149C75.723,11.313 75.676,11.467 75.58,11.611C75.485,11.756 75.347,11.868 75.167,11.947C74.987,12.026 74.783,12.065 74.556,12.065C74.18,12.065 73.893,11.987 73.696,11.831C73.499,11.675 73.373,11.443 73.318,11.136Z" style="fill-rule:nonzero;"/>
    </g>
</svg>
