<?xml version="1.0" encoding="UTF-8" standalone="no"?>
<!DOCTYPE svg PUBLIC "-//W3C//DTD SVG 1.1//EN" "http://www.w3.org/Graphics/SVG/1.1/DTD/svg11.dtd">
<svg width="100%" height="100%" viewBox="0 0 468 55" version="1.1" xmlns="http://www.w3.org/2000/svg" xmlns:xlink="http://www.w3.org/1999/xlink" xml:space="preserve" xmlns:serif="http://www.serif.com/" style="fill-rule:evenodd;clip-rule:evenodd;stroke-linejoin:round;stroke-miterlimit:2;">
    <g id="Layer2">
        <rect x="0" y="0" width="468" height="55" style="fill:rgb(25,34,45);"/>
    </g>
    <g id="Layer1">
        <g transform="matrix(0.113115,0,0,0.113115,-46.344,10.473614)">
            <rect x="425.168" y="89.29" width="2035.543" height="295.506" style="fill:none;"/>
            <path d="M694.614,251.844L694.614,264.325C694.614,268.164 694.614,271.684 694.294,274.245C688.854,335.686 664.214,349.447 610.452,354.886C598.292,356.166 585.172,356.806 568.212,356.806L560.851,356.806C545.491,356.806 532.371,356.166 520.85,355.206C473.169,352.006 444.369,338.566 437.968,276.164C436.368,261.124 435.728,241.284 435.728,221.123C435.728,200.323 436.368,179.522 437.968,163.842C443.729,99.84 473.489,87.04 525.01,84.8C538.451,84.161 553.171,83.84 571.091,83.84C585.492,83.84 596.052,84.161 606.932,84.8C656.853,87.68 686.294,97.6 692.694,156.482C693.334,163.522 693.654,176.642 693.654,184.642L625.493,184.642L625.493,173.762C623.893,152.642 612.052,146.242 596.372,144.642C587.412,143.681 580.692,143.041 570.772,143.041L564.371,143.041C554.771,143.041 546.771,143.681 538.131,144.322C522.77,145.602 507.73,149.761 505.17,178.882C504.21,189.762 503.57,205.122 503.57,220.163C503.89,235.843 504.53,251.844 505.49,263.365C508.05,292.164 522.131,294.405 541.651,296.005C551.891,296.965 559.891,297.285 568.531,297.285C575.252,297.285 582.292,296.965 590.612,296.325C608.213,295.045 623.893,290.565 626.132,268.164C626.453,263.044 626.453,252.484 626.453,245.764L694.614,245.764L694.614,251.844L694.614,251.844Z" style="fill:white;fill-rule:nonzero;"/>
            <path d="M920.533,350.086L905.173,309.125L797.65,309.125L782.61,350.086L709.648,350.086L813.97,89.281L889.172,89.281L993.495,350.407L920.533,350.086L920.533,350.086ZM851.411,157.121L816.53,250.244L886.292,250.244L851.411,157.121Z" style="fill:white;fill-rule:nonzero;"/>
            <path d="M1014.288,350.407L1014.288,89.281L1080.848,89.281L1080.848,291.845L1227.091,291.845L1227.091,350.726L1014.288,350.407L1014.288,350.407Z" style="fill:white;fill-rule:nonzero;"/>
            <path d="M1253.644,350.407L1253.644,88.96L1321.806,88.96L1321.806,350.726L1253.644,350.407L1253.644,350.407Z" style="fill:white;fill-rule:nonzero;"/>
            <path d="M1596.369,300.485C1592.209,337.926 1551.888,350.407 1515.727,350.407L1359.564,350.407L1359.564,89.281L1520.208,89.281C1546.768,89.281 1579.728,97.6 1585.489,128.641C1586.769,135.362 1587.089,144.322 1587.089,153.602C1587.089,163.522 1586.449,173.762 1585.169,180.482C1582.928,193.922 1573.968,209.283 1547.088,214.723C1575.249,218.244 1592.849,235.843 1595.729,252.484C1597.329,260.484 1597.649,269.445 1597.649,278.084C1597.649,285.765 1597.009,293.445 1596.369,300.485ZM1521.807,168.002C1521.807,164.802 1521.487,161.282 1520.847,158.081C1518.607,146.881 1508.687,145.602 1498.767,145.602L1423.565,145.602L1423.565,190.403L1498.767,190.403C1511.247,190.403 1519.887,186.882 1521.487,175.363C1521.807,173.122 1521.807,170.562 1521.807,168.002ZM1505.807,246.404L1423.565,246.404L1423.565,294.725L1505.807,294.725C1517.008,294.725 1530.448,293.765 1533.008,280.325C1533.648,277.445 1533.648,274.245 1533.648,271.044C1533.648,268.164 1533.648,264.964 1533.008,262.084C1530.128,246.724 1514.767,246.404 1505.807,246.404L1505.807,246.404Z" style="fill:white;fill-rule:nonzero;"/>
            <path d="M1879.246,274.245C1873.805,335.366 1849.804,349.447 1796.044,354.886C1783.883,356.166 1768.843,356.806 1751.883,356.806L1744.522,356.806C1728.842,356.806 1714.122,356.166 1702.601,355.206C1654.921,352.006 1626.12,338.566 1619.719,276.164C1618.12,261.124 1617.479,241.284 1617.479,221.123C1617.479,200.323 1618.12,179.522 1619.719,163.842C1625.48,99.84 1655.24,87.04 1706.761,84.8C1720.202,84.161 1736.842,83.84 1754.762,83.84C1769.163,83.84 1781.643,84.161 1792.523,84.8C1842.445,87.68 1871.565,97.6 1877.966,156.482C1879.885,174.082 1880.525,196.162 1880.845,217.923C1880.845,238.083 1880.845,258.245 1879.246,274.245L1879.246,274.245ZM1811.084,176.962C1808.204,150.722 1797.643,146.242 1781.964,144.642C1773.004,143.681 1764.683,143.041 1754.443,143.041L1747.722,143.041C1737.802,143.041 1728.522,143.681 1719.882,144.322C1704.521,145.602 1689.481,149.761 1686.922,178.882C1685.961,189.762 1685.321,205.122 1685.321,220.163C1685.641,235.843 1686.281,251.844 1687.241,263.365C1690.121,292.164 1703.882,294.405 1723.402,296.005C1733.642,296.965 1742.923,297.285 1752.203,297.285C1760.203,297.285 1767.882,296.965 1776.203,296.325C1793.803,295.045 1809.484,290.565 1811.404,268.164C1812.684,255.684 1813.004,238.404 1813.004,221.443C1813.004,204.803 1812.364,188.483 1811.084,176.962L1811.084,176.962Z" style="fill:white;fill-rule:nonzero;"/>
            <path d="M2078.28,359.046C2063.88,360.966 2052.679,361.607 2038.598,361.607C2025.159,361.607 2014.278,361.286 2000.518,359.687C1932.037,352.646 1908.356,318.085 1908.356,264.004L1908.356,89.281L1978.758,89.281L1978.758,258.245C1978.758,279.685 1985.477,295.365 2012.038,298.565C2020.678,299.525 2028.039,300.165 2037.959,300.165C2048.839,300.165 2056.84,299.525 2065.8,297.605C2089.16,293.124 2097.16,274.884 2097.16,254.404L2097.16,89.281L2167.242,89.281L2167.242,264.004C2167.242,324.165 2133.961,352.327 2078.28,359.046Z" style="fill:white;fill-rule:nonzero;"/>
        </g>
        <g transform="matrix(1,0,0,1,150.104598,0)">
            <path d="M58.814,26.577C57.968,26.276 57.525,26.003 57.112,25.799C56.791,25.64 56.501,25.478 56.242,25.315C55.219,24.671 54.695,24.024 54.782,23.609C55.073,22.219 55.96,21.547 57.018,21.237C57.355,21.138 58.389,20.686 58.832,19.945C58.898,19.835 59.107,19.898 59.455,20.124C59.624,20.234 59.34,20.911 59.171,21.102C59.037,21.253 61.227,21.434 63.813,19.857C66.083,18.473 66.56,18.865 68.056,18.928C69.978,19.008 70.69,19.157 71.945,18.846C72.732,18.652 73.4,18.076 73.576,18.235C73.805,18.442 73.404,19.591 72.56,20.127C71.62,20.724 70.393,20.615 70.393,20.615C70.393,20.615 72.359,21.062 73.305,20.971C75.102,20.799 76.28,20.314 76.276,20.479C76.274,20.553 75.698,21.661 74.299,22.328C73.573,22.674 73.097,22.636 73.097,22.636C73.097,22.636 75.186,24.025 76.658,26.459C78.497,29.502 78.952,31.975 78.89,34.108C78.815,36.642 77.879,38.338 77.337,38.905C76.923,39.338 76.695,39.137 76.715,39.061C77.843,34.823 74.787,31.042 74.758,31.047C74.503,31.091 75.929,34.364 74.12,36.204C71.863,38.498 67.006,39.049 65.415,41.963C63.401,45.651 65.622,49.915 68.196,52.055C68.926,52.662 62.654,52.847 58.918,47.002C56.912,43.863 56.604,38.423 57.967,36.823C57.76,36.882 55.69,39.885 54.764,42.519C53.852,45.113 53.509,48.153 53.718,49.542C53.728,49.612 53.449,49.054 53.192,48.299C52.922,47.509 52.671,46.494 52.529,45.31C52.275,43.191 52.633,40.817 53.227,39.11C54.052,36.743 55.04,34.646 58.196,33.222C58.273,33.118 53.382,33.034 50.55,39.536C50.146,40.464 49.854,35.252 53.099,32.378C55.975,29.829 62.831,30.591 64.779,30.709C68.87,30.957 68.384,29.379 68.14,28.619C67.983,28.13 67.3,27.736 66.259,27.751C65.572,27.76 65.5,27.947 64.292,27.869C62.929,27.782 61.902,27.585 61.709,27.547C62.17,28.936 63.875,28.976 63.855,29.147C63.807,29.558 61.058,29.544 58.814,26.577Z" style="fill:white;"/>
        </g>
        <path d="M9.53,14.533C9.237,14.56 8.81,14.587 8.424,14.587L8.238,14.587C7.265,14.56 6.999,14.387 6.999,13.428L6.999,9.099L9.516,9.099L9.516,7.793L7.012,7.793L7.012,5.782L5.52,5.782L5.52,7.793L3.749,7.793L3.749,9.099L5.52,9.099L5.52,13.707C5.52,15.372 6.519,15.905 8.198,15.932C8.624,15.932 9.263,15.919 9.53,15.892L9.53,14.533Z" style="fill:white;fill-rule:nonzero;"/>
        <path d="M18.401,15.839L18.401,10.351C18.401,8.406 17.402,7.647 14.978,7.647C13.792,7.647 12.753,7.807 12.42,8.593L12.42,5.236L10.955,5.236L10.955,15.825L12.433,15.825L12.433,10.83C12.433,9.938 12.687,8.952 14.844,8.952C16.376,8.952 16.909,9.405 16.909,10.63L16.909,15.825L18.401,15.839Z" style="fill:white;fill-rule:nonzero;"/>
        <path d="M22.117,6.781L22.117,5.249L20.226,5.249L20.226,6.781L22.117,6.781ZM21.931,15.825L21.931,7.887L20.425,7.887L20.425,15.825L21.931,15.825Z" style="fill:white;fill-rule:nonzero;"/>
        <path d="M27.059,14.826C25.634,14.826 24.954,14.72 24.954,13.294L23.476,13.294C23.489,15.759 24.608,16.052 27.299,16.052C29.79,16.052 31.002,15.612 31.002,13.628C31.002,11.869 30.149,11.39 28.83,11.217C27.978,11.11 26.659,11.03 25.94,10.937C25.381,10.857 25.008,10.684 25.008,9.964C25.008,8.939 25.807,8.792 27.179,8.792C28.524,8.832 29.217,8.872 29.283,10.031L29.283,10.124L30.709,10.124C30.669,8.193 30.216,7.647 27.219,7.567C24.075,7.567 23.676,8.579 23.609,9.885C23.609,11.177 23.995,11.896 25.5,12.136C26.26,12.256 27.672,12.335 28.524,12.442C29.23,12.535 29.457,12.802 29.55,13.201C29.563,13.308 29.576,13.454 29.576,13.614C29.576,14.387 29.31,14.826 27.365,14.826L27.059,14.826Z" style="fill:white;fill-rule:nonzero;"/>
        <path d="M45.734,15.825L47.878,7.807L46.386,7.807L45.228,12.455C45.121,12.882 44.788,14.587 44.788,14.587C44.775,14.64 44.761,14.666 44.748,14.666C44.735,14.666 44.721,14.64 44.721,14.587C44.721,14.587 44.362,12.828 44.255,12.442L43.056,7.793L41.138,7.793L40.019,12.549C39.913,12.975 39.646,14.12 39.527,14.613C39.513,14.64 39.5,14.653 39.5,14.653C39.473,14.653 39.46,14.627 39.46,14.627C39.367,14.08 39.14,13.015 39.02,12.522C38.98,12.322 37.848,7.793 37.848,7.793L36.356,7.793L38.488,15.825L40.419,15.825L41.618,11.017C41.644,10.897 42.044,9.099 42.057,8.939C42.057,8.912 42.071,8.899 42.084,8.899C42.111,8.899 42.124,8.912 42.124,8.939C42.137,9.099 42.537,10.817 42.577,10.99L43.789,15.825L45.734,15.825Z" style="fill:white;fill-rule:nonzero;"/>
        <path d="M56.696,12.136C56.696,11.816 56.709,11.456 56.709,11.11C56.709,8.659 56.363,7.593 52.887,7.593C49.543,7.687 48.757,8.033 48.757,11.896C48.757,15.732 49.916,15.998 52.967,15.998C55.231,15.998 56.39,15.679 56.696,13.681C56.736,13.468 56.749,13.241 56.749,13.041L55.311,13.041C55.204,14.56 54.618,14.733 52.873,14.733L52.567,14.733C52.261,14.733 51.981,14.72 51.728,14.693C50.542,14.587 50.183,14.16 50.183,12.136L56.696,12.136ZM50.196,10.977C50.342,9.085 50.596,8.859 52.9,8.859C54.418,8.859 55.324,8.952 55.324,10.431C55.324,10.604 55.311,10.79 55.311,10.977L50.196,10.977Z" style="fill:white;fill-rule:nonzero;"/>
        <path d="M59.773,15.825L59.773,15.133C60.159,15.772 60.666,16.052 62.331,16.052C62.85,16.052 63.396,16.025 63.729,15.998C66.153,15.799 66.207,13.414 66.207,11.643C66.207,8.473 65.527,7.567 62.61,7.567C61.292,7.567 60.333,7.633 59.773,8.473L59.773,5.236L58.321,5.236L58.321,15.825L59.773,15.825ZM62.424,14.746C59.96,14.746 59.773,14.2 59.773,11.856C59.773,9.725 59.8,8.886 62.384,8.886C64.502,8.886 64.741,9.525 64.741,11.736C64.741,14.36 64.289,14.746 62.424,14.746Z" style="fill:white;fill-rule:nonzero;"/>
        <path d="M70.962,14.826C69.537,14.826 68.857,14.72 68.857,13.294L67.379,13.294C67.392,15.759 68.511,16.052 71.202,16.052C73.693,16.052 74.905,15.612 74.905,13.628C74.905,11.869 74.052,11.39 72.734,11.217C71.881,11.11 70.562,11.03 69.843,10.937C69.284,10.857 68.911,10.684 68.911,9.964C68.911,8.939 69.71,8.792 71.082,8.792C72.427,8.832 73.12,8.872 73.186,10.031L73.186,10.124L74.612,10.124C74.572,8.193 74.119,7.647 71.122,7.567C67.978,7.567 67.579,8.579 67.512,9.885C67.512,11.177 67.898,11.896 69.404,12.136C70.163,12.256 71.575,12.335 72.427,12.442C73.133,12.535 73.36,12.802 73.453,13.201C73.466,13.308 73.479,13.454 73.479,13.614C73.479,14.387 73.213,14.826 71.268,14.826L70.962,14.826Z" style="fill:white;fill-rule:nonzero;"/>
        <path d="M78.208,6.781L78.208,5.249L76.317,5.249L76.317,6.781L78.208,6.781ZM78.022,15.825L78.022,7.887L76.516,7.887L76.516,15.825L78.022,15.825Z" style="fill:white;fill-rule:nonzero;"/>
        <path d="M85.121,14.533C84.828,14.56 84.402,14.587 84.016,14.587L83.829,14.587C82.857,14.56 82.59,14.387 82.59,13.428L82.59,9.099L85.108,9.099L85.108,7.793L82.604,7.793L82.604,5.782L81.112,5.782L81.112,7.793L79.34,7.793L79.34,9.099L81.112,9.099L81.112,13.707C81.112,15.372 82.111,15.905 83.789,15.932C84.215,15.932 84.855,15.919 85.121,15.892L85.121,14.533Z" style="fill:white;fill-rule:nonzero;"/>
        <path d="M94.126,12.136C94.126,11.816 94.139,11.456 94.139,11.11C94.139,8.659 93.793,7.593 90.316,7.593C86.973,7.687 86.187,8.033 86.187,11.896C86.187,15.732 87.346,15.998 90.396,15.998C92.66,15.998 93.819,15.679 94.126,13.681C94.166,13.468 94.179,13.241 94.179,13.041L92.74,13.041C92.634,14.56 92.048,14.733 90.303,14.733L89.996,14.733C89.69,14.733 89.41,14.72 89.157,14.693C87.972,14.587 87.612,14.16 87.612,12.136L94.126,12.136ZM87.625,10.977C87.772,9.085 88.025,8.859 90.329,8.859C91.848,8.859 92.754,8.952 92.754,10.431C92.754,10.604 92.74,10.79 92.74,10.977L87.625,10.977Z" style="fill:white;fill-rule:nonzero;"/>
        <path d="M102.158,6.781L102.158,5.249L100.266,5.249L100.266,6.781L102.158,6.781ZM101.971,15.825L101.971,7.887L100.466,7.887L100.466,15.825L101.971,15.825Z" style="fill:white;fill-rule:nonzero;"/>
        <path d="M107.099,14.826C105.674,14.826 104.995,14.72 104.995,13.294L103.516,13.294C103.53,15.759 104.649,16.052 107.339,16.052C109.83,16.052 111.042,15.612 111.042,13.628C111.042,11.869 110.19,11.39 108.871,11.217C108.019,11.11 106.7,11.03 105.981,10.937C105.421,10.857 105.048,10.684 105.048,9.964C105.048,8.939 105.847,8.792 107.219,8.792C108.565,8.832 109.257,8.872 109.324,10.031L109.324,10.124L110.749,10.124C110.709,8.193 110.256,7.647 107.259,7.567C104.116,7.567 103.716,8.579 103.65,9.885C103.65,11.177 104.036,11.896 105.541,12.136C106.3,12.256 107.712,12.335 108.565,12.442C109.271,12.535 109.497,12.802 109.59,13.201C109.604,13.308 109.617,13.454 109.617,13.614C109.617,14.387 109.351,14.826 107.406,14.826L107.099,14.826Z" style="fill:white;fill-rule:nonzero;"/>
        <path d="M118.608,18.21L118.608,14.986C119.048,15.652 119.7,15.892 121.392,15.892C124.322,15.892 125.028,14.999 125.028,11.909C125.028,10.444 125.028,7.847 122.551,7.647C122.244,7.62 121.752,7.593 121.272,7.593C119.767,7.593 119.114,7.767 118.595,8.566L118.608,7.807L117.156,7.807L117.156,18.21L118.608,18.21ZM121.099,14.573C118.741,14.573 118.661,13.654 118.608,11.776C118.608,9.805 118.781,9.192 119.78,9.019C120.206,8.939 120.673,8.899 121.099,8.899L121.245,8.899C123.23,8.899 123.576,9.472 123.576,11.763C123.576,14.24 123.124,14.573 121.245,14.573L121.099,14.573Z" style="fill:white;fill-rule:nonzero;"/>
        <path d="M130.463,16.065C133.82,16.065 134.379,15.213 134.379,11.789C134.379,10.99 134.286,10.058 134.086,9.285C133.7,7.833 132.607,7.567 130.463,7.567C127.399,7.567 126.334,7.807 126.334,11.909C126.334,15.612 127.293,16.065 130.463,16.065ZM130.25,14.813C129.93,14.813 129.637,14.8 129.371,14.773C128.092,14.64 127.759,14.187 127.759,11.909C127.759,9.139 128.052,8.832 130.41,8.832C132.621,8.832 132.967,9.112 132.967,11.816C132.967,14.254 132.794,14.813 130.463,14.813L130.25,14.813Z" style="fill:white;fill-rule:nonzero;"/>
        <path d="M144.662,15.825L146.807,7.807L145.315,7.807L144.156,12.455C144.049,12.882 143.716,14.587 143.716,14.587C143.703,14.64 143.69,14.666 143.676,14.666C143.663,14.666 143.65,14.64 143.65,14.587C143.65,14.587 143.29,12.828 143.184,12.442L141.985,7.793L140.067,7.793L138.948,12.549C138.841,12.975 138.575,14.12 138.455,14.613C138.442,14.64 138.428,14.653 138.428,14.653C138.402,14.653 138.388,14.627 138.388,14.627C138.295,14.08 138.069,13.015 137.949,12.522C137.909,12.322 136.777,7.793 136.777,7.793L135.285,7.793L137.416,15.825L139.347,15.825L140.546,11.017C140.573,10.897 140.972,9.099 140.986,8.939C140.986,8.912 140.999,8.899 141.012,8.899C141.039,8.899 141.052,8.912 141.052,8.939C141.066,9.099 141.465,10.817 141.505,10.99L142.717,15.825L144.662,15.825Z" style="fill:white;fill-rule:nonzero;"/>
        <path d="M155.625,12.136C155.625,11.816 155.638,11.456 155.638,11.11C155.638,8.659 155.292,7.593 151.815,7.593C148.472,7.687 147.686,8.033 147.686,11.896C147.686,15.732 148.845,15.998 151.895,15.998C154.159,15.998 155.318,15.679 155.625,13.681C155.665,13.468 155.678,13.241 155.678,13.041L154.239,13.041C154.133,14.56 153.547,14.733 151.802,14.733L151.495,14.733C151.189,14.733 150.909,14.72 150.656,14.693C149.471,14.587 149.111,14.16 149.111,12.136L155.625,12.136ZM149.124,10.977C149.271,9.085 149.524,8.859 151.828,8.859C153.347,8.859 154.253,8.952 154.253,10.431C154.253,10.604 154.239,10.79 154.239,10.977L149.124,10.977Z" style="fill:white;fill-rule:nonzero;"/>
        <path d="M158.755,15.839L158.755,10.737C158.755,9.298 159.994,9.059 161.579,9.059C161.992,9.059 162.418,9.072 162.738,9.099L162.738,7.687C162.325,7.66 161.765,7.66 161.419,7.66C160.007,7.66 159.154,7.873 158.768,8.632L158.768,7.793L157.303,7.793L157.303,15.839L158.755,15.839Z" style="fill:white;fill-rule:nonzero;"/>
        <path d="M171.582,12.136C171.582,11.816 171.595,11.456 171.595,11.11C171.595,8.659 171.249,7.593 167.773,7.593C164.429,7.687 163.643,8.033 163.643,11.896C163.643,15.732 164.802,15.998 167.852,15.998C170.117,15.998 171.276,15.679 171.582,13.681C171.622,13.468 171.635,13.241 171.635,13.041L170.197,13.041C170.09,14.56 169.504,14.733 167.759,14.733L167.453,14.733C167.146,14.733 166.867,14.72 166.614,14.693C165.428,14.587 165.069,14.16 165.069,12.136L171.582,12.136ZM165.082,10.977C165.228,9.085 165.481,8.859 167.786,8.859C169.304,8.859 170.21,8.952 170.21,10.431C170.21,10.604 170.197,10.79 170.197,10.977L165.082,10.977Z" style="fill:white;fill-rule:nonzero;"/>
        <path d="M180.76,15.839L180.76,5.236L179.308,5.236L179.308,8.473C178.828,7.753 178.109,7.567 176.444,7.567C173.487,7.567 172.874,8.579 172.874,11.643C172.874,13.441 172.954,15.799 175.365,15.998C175.698,16.025 176.244,16.052 176.764,16.052C178.056,16.052 178.802,15.945 179.321,15.133L179.308,15.825L180.76,15.839ZM176.67,14.746C174.766,14.746 174.339,14.36 174.339,11.669C174.339,9.272 174.699,8.939 176.764,8.886C179.041,8.886 179.308,9.418 179.308,11.856C179.308,13.881 179.215,14.746 176.91,14.746L176.67,14.746Z" style="fill:white;fill-rule:nonzero;"/>
        <path d="M188.752,15.825L188.752,15.133C189.138,15.772 189.644,16.052 191.309,16.052C191.829,16.052 192.375,16.025 192.708,15.998C195.132,15.799 195.185,13.414 195.185,11.643C195.185,8.473 194.506,7.567 191.589,7.567C190.27,7.567 189.311,7.633 188.752,8.473L188.752,5.236L187.3,5.236L187.3,15.825L188.752,15.825ZM191.402,14.746C188.938,14.746 188.752,14.2 188.752,11.856C188.752,9.725 188.778,8.886 191.362,8.886C193.48,8.886 193.72,9.525 193.72,11.736C193.72,14.36 193.267,14.746 191.402,14.746Z" style="fill:white;fill-rule:nonzero;"/>
        <path d="M199.248,15.812C198.942,16.478 198.382,16.638 197.836,16.638C197.743,16.638 197.157,16.625 196.571,16.558L196.571,17.85C197.157,17.903 197.53,17.93 197.863,17.93C199.061,17.93 199.821,17.57 200.327,16.651C200.447,16.438 200.647,16.105 200.753,15.852L204.176,7.807L202.511,7.807L200.247,13.654L197.769,7.793L196.104,7.793L199.541,15.173L199.248,15.812Z" style="fill:white;fill-rule:nonzero;"/>
        <path d="M195.688,-33.392C179.989,-26.194 170.219,-24.015 161.791,-21.297C155.239,-19.184 149.049,-17.53 143.297,-16.306C120.551,-11.467 104.653,-13.362 100.277,-20.266C85.655,-43.338 88.884,-64.507 99.319,-82.971C102.635,-88.839 110.833,-108.947 107.02,-125.11C106.452,-127.518 110.179,-129.437 118,-130.987C121.82,-131.744 126.969,-118.586 127.198,-113.687C127.379,-109.815 160.009,-136.686 174.537,-193.108C187.289,-242.637 199.118,-243.634 220.6,-262.829C248.203,-287.493 260.015,-294.989 273.163,-316.105C281.406,-329.344 282.895,-346.232 287.452,-346.401C293.399,-346.622 303.262,-325.394 298.814,-306.689C293.857,-285.845 275.47,-270.887 275.47,-270.887C275.47,-270.887 308.584,-291.087 320.412,-305.028C342.875,-331.5 352.635,-353.982 354.785,-351.664C355.753,-350.621 362.664,-327.6 352.316,-299.646C346.945,-285.139 339.864,-279.27 339.864,-279.27C339.864,-279.27 387.31,-288.128 440.245,-274.283C506.411,-256.976 545.854,-228.982 573.596,-198.709C606.537,-162.762 616.382,-126.813 616.504,-111.73C616.597,-100.204 610.751,-99.916 610.018,-101.225C568.756,-174.817 475.892,-185.98 475.564,-185.529C472.632,-181.495 536.197,-155.488 535.909,-105.846C535.551,-43.936 475.93,28.791 493.059,90.318C514.742,168.201 602.545,197.24 666.754,192.24C684.951,190.823 600.918,277.478 471.025,246.949C401.264,230.554 324.072,159.643 321.397,119.302C319.333,122.891 331.05,192.065 353.597,240.814C375.805,288.829 411.855,335.359 433.343,351.719C434.437,352.552 423.093,348.59 409.429,341.632C395.113,334.341 378.033,323.704 360.202,309.279C328.292,283.465 301.384,245.919 286.699,214.409C266.327,170.696 251.83,128.523 276.289,66.559C275.935,64.089 207.343,128.516 255.476,256.18C262.348,274.407 188.439,206.425 194.65,123.262C200.156,49.538 304.939,-31.887 333.387,-56.38C393.126,-107.815 365.277,-123.071 351.724,-130.28C343.002,-134.919 328.285,-131.2 314.12,-117.03C304.776,-107.682 306.292,-104.147 288.587,-89.017C268.606,-71.943 251.804,-60.893 248.637,-58.82C273.607,-45.851 297.675,-68.152 299.685,-65.54C304.548,-59.221 266.437,-22.561 195.688,-33.392Z" style="fill:rgb(68,80,97);"/>
        <g>
            <g transform="matrix(15.058639,0,0,15.058639,273.794871,25.152064)">
                <path d="M0.268,0.019L0.268,-0.457L0.439,-0.457L0.439,-0.576L0.268,-0.576L0.268,-0.602C0.268,-0.678 0.325,-0.679 0.383,-0.679C0.406,-0.679 0.433,-0.68 0.436,-0.68L0.437,-0.796L0.361,-0.796C0.217,-0.796 0.135,-0.762 0.134,-0.623C0.133,-0.622 0.133,-0.617 0.133,-0.611C0.133,-0.598 0.134,-0.579 0.134,-0.576L0.016,-0.576L0.016,-0.457L0.134,-0.457L0.134,0.019L0.268,0.019Z" style="fill:rgb(25,34,45);fill-rule:nonzero;"/>
            </g>
            <g transform="matrix(15.058639,0,0,15.058639,280.737395,25.152064)">
                <path d="M0.042,-0.279C0.048,0.001 0.098,0.038 0.36,0.038C0.613,0.038 0.663,-0.013 0.663,-0.288C0.658,-0.59 0.581,-0.608 0.362,-0.608C0.11,-0.608 0.042,-0.583 0.042,-0.279ZM0.376,-0.076C0.364,-0.076 0.352,-0.075 0.341,-0.075C0.195,-0.075 0.172,-0.095 0.172,-0.28C0.172,-0.484 0.197,-0.487 0.336,-0.493C0.348,-0.493 0.36,-0.494 0.372,-0.494C0.51,-0.494 0.534,-0.475 0.534,-0.284C0.534,-0.103 0.519,-0.076 0.376,-0.076Z" style="fill:rgb(25,34,45);fill-rule:nonzero;"/>
            </g>
            <g transform="matrix(15.058639,0,0,15.058639,291.428722,25.152064)">
                <path d="M0.201,0.019L0.201,-0.352C0.201,-0.432 0.246,-0.474 0.417,-0.474C0.445,-0.474 0.474,-0.473 0.496,-0.471L0.496,-0.599C0.466,-0.601 0.426,-0.601 0.401,-0.601C0.287,-0.601 0.231,-0.584 0.202,-0.529L0.201,-0.591L0.068,-0.591L0.068,0.019L0.201,0.019Z" style="fill:rgb(25,34,45);fill-rule:nonzero;"/>
            </g>
            <g transform="matrix(15.058639,0,0,15.058639,304.409353,25.152064)">
                <path d="M0.641,0.02C0.628,-0.032 0.624,-0.071 0.624,-0.115L0.624,-0.409C0.624,-0.578 0.528,-0.601 0.361,-0.605L0.341,-0.605C0.155,-0.605 0.067,-0.563 0.061,-0.422L0.195,-0.422L0.195,-0.428C0.195,-0.432 0.195,-0.438 0.197,-0.443C0.206,-0.483 0.242,-0.493 0.338,-0.493L0.361,-0.493C0.488,-0.493 0.499,-0.46 0.499,-0.415C0.499,-0.393 0.499,-0.372 0.498,-0.368C0.489,-0.367 0.289,-0.363 0.219,-0.355C0.149,-0.347 0.037,-0.326 0.037,-0.152L0.037,-0.146C0.044,-0.007 0.1,0.031 0.292,0.031C0.393,0.031 0.471,0.019 0.505,-0.02C0.508,-0.006 0.509,0.006 0.514,0.019L0.641,0.02ZM0.5,-0.178C0.5,-0.138 0.492,-0.081 0.321,-0.081C0.193,-0.081 0.163,-0.102 0.163,-0.162C0.163,-0.233 0.218,-0.243 0.252,-0.247C0.316,-0.254 0.445,-0.257 0.5,-0.258L0.5,-0.178Z" style="fill:rgb(25,34,45);fill-rule:nonzero;"/>
            </g>
            <g transform="matrix(15.058639,0,0,15.058639,319.934784,25.152064)">
                <path d="M0.199,0.177L0.199,-0.041C0.231,0.006 0.277,0.022 0.395,0.022C0.651,0.022 0.678,-0.075 0.678,-0.28C0.678,-0.411 0.674,-0.588 0.488,-0.603C0.466,-0.604 0.432,-0.606 0.398,-0.606C0.252,-0.606 0.23,-0.582 0.198,-0.534L0.198,-0.591L0.066,-0.591L0.066,0.177L0.199,0.177ZM0.2,-0.295C0.2,-0.462 0.218,-0.489 0.374,-0.489L0.39,-0.489C0.539,-0.489 0.547,-0.425 0.547,-0.289C0.547,-0.132 0.527,-0.1 0.397,-0.096C0.39,-0.096 0.383,-0.095 0.375,-0.095C0.216,-0.095 0.207,-0.15 0.2,-0.269L0.2,-0.295Z" style="fill:rgb(25,34,45);fill-rule:nonzero;"/>
            </g>
            <g transform="matrix(15.058639,0,0,15.058639,330.852216,25.152064)">
                <path d="M0.201,0.019L0.201,-0.352C0.201,-0.432 0.246,-0.474 0.417,-0.474C0.445,-0.474 0.474,-0.473 0.496,-0.471L0.496,-0.599C0.466,-0.601 0.426,-0.601 0.401,-0.601C0.287,-0.601 0.231,-0.584 0.202,-0.529L0.201,-0.591L0.068,-0.591L0.068,0.019L0.201,0.019Z" style="fill:rgb(25,34,45);fill-rule:nonzero;"/>
            </g>
            <g transform="matrix(15.058639,0,0,15.058639,338.638107,25.152064)">
                <path d="M0.223,-0.656L0.223,-0.781L0.06,-0.781L0.06,-0.656L0.223,-0.656ZM0.211,0.019L0.211,-0.58L0.074,-0.58L0.074,0.019L0.211,0.019Z" style="fill:rgb(25,34,45);fill-rule:nonzero;"/>
            </g>
            <g transform="matrix(15.058639,0,0,15.058639,342.914864,25.152064)">
                <path d="M0.426,0.019L0.666,-0.591L0.517,-0.591L0.409,-0.302C0.403,-0.286 0.339,-0.098 0.339,-0.098C0.339,-0.098 0.279,-0.283 0.271,-0.304L0.159,-0.591L0.012,-0.591L0.255,0.019L0.426,0.019Z" style="fill:rgb(25,34,45);fill-rule:nonzero;"/>
            </g>
            <g transform="matrix(15.058639,0,0,15.058639,353.139287,25.152064)">
                <path d="M0.641,0.02C0.628,-0.032 0.624,-0.071 0.624,-0.115L0.624,-0.409C0.624,-0.578 0.528,-0.601 0.361,-0.605L0.341,-0.605C0.155,-0.605 0.067,-0.563 0.061,-0.422L0.195,-0.422L0.195,-0.428C0.195,-0.432 0.195,-0.438 0.197,-0.443C0.206,-0.483 0.242,-0.493 0.338,-0.493L0.361,-0.493C0.488,-0.493 0.499,-0.46 0.499,-0.415C0.499,-0.393 0.499,-0.372 0.498,-0.368C0.489,-0.367 0.289,-0.363 0.219,-0.355C0.149,-0.347 0.037,-0.326 0.037,-0.152L0.037,-0.146C0.044,-0.007 0.1,0.031 0.292,0.031C0.393,0.031 0.471,0.019 0.505,-0.02C0.508,-0.006 0.509,0.006 0.514,0.019L0.641,0.02ZM0.5,-0.178C0.5,-0.138 0.492,-0.081 0.321,-0.081C0.193,-0.081 0.163,-0.102 0.163,-0.162C0.163,-0.233 0.218,-0.243 0.252,-0.247C0.316,-0.254 0.445,-0.257 0.5,-0.258L0.5,-0.178Z" style="fill:rgb(25,34,45);fill-rule:nonzero;"/>
            </g>
            <g transform="matrix(15.058639,0,0,15.058639,363.469979,25.152064)">
                <path d="M0.47,-0.101C0.444,-0.099 0.412,-0.096 0.381,-0.096L0.37,-0.096C0.298,-0.098 0.285,-0.117 0.285,-0.177L0.285,-0.471L0.469,-0.471L0.469,-0.591L0.286,-0.591L0.286,-0.743L0.149,-0.743L0.149,-0.591L0.019,-0.591L0.019,-0.471L0.149,-0.471L0.149,-0.144C0.149,-0.015 0.229,0.025 0.361,0.027L0.382,0.027C0.414,0.027 0.451,0.026 0.47,0.024L0.47,-0.101Z" style="fill:rgb(25,34,45);fill-rule:nonzero;"/>
            </g>
            <g transform="matrix(15.058639,0,0,15.058639,370.999242,25.152064)">
                <path d="M0.371,0.034C0.552,0.034 0.634,0.004 0.654,-0.148C0.656,-0.161 0.658,-0.174 0.658,-0.188L0.526,-0.188C0.519,-0.111 0.507,-0.08 0.375,-0.08C0.362,-0.08 0.35,-0.079 0.338,-0.079C0.317,-0.079 0.297,-0.08 0.278,-0.082C0.193,-0.09 0.174,-0.114 0.174,-0.252L0.654,-0.252C0.654,-0.279 0.655,-0.311 0.655,-0.343C0.655,-0.475 0.649,-0.578 0.472,-0.601C0.448,-0.604 0.418,-0.605 0.388,-0.606C0.373,-0.606 0.359,-0.607 0.344,-0.607C0.087,-0.607 0.042,-0.543 0.042,-0.28C0.047,-0.035 0.081,0.029 0.331,0.034L0.371,0.034ZM0.175,-0.354C0.175,-0.48 0.22,-0.493 0.337,-0.493C0.349,-0.493 0.362,-0.494 0.375,-0.494C0.488,-0.494 0.527,-0.476 0.527,-0.388C0.527,-0.376 0.526,-0.364 0.526,-0.354L0.175,-0.354Z" style="fill:rgb(25,34,45);fill-rule:nonzero;"/>
            </g>
            <g transform="matrix(15.058639,0,0,15.058639,381.54021,25.152064)">
                <path d="M0.049,0.18C0.163,0.18 0.22,0.116 0.22,0.009L0.22,-0.146L0.045,-0.146L0.045,0.008L0.13,0.008C0.13,0.049 0.118,0.095 0.049,0.095L0.049,0.18Z" style="fill:rgb(25,34,45);fill-rule:nonzero;"/>
            </g>
            <g transform="matrix(15.058639,0,0,15.058639,390.830824,25.152064)">
                <path d="M0.597,-0.411C0.593,-0.525 0.589,-0.609 0.325,-0.609C0.086,-0.609 0.049,-0.541 0.044,-0.43L0.044,-0.414C0.044,-0.338 0.067,-0.272 0.186,-0.252C0.245,-0.243 0.356,-0.236 0.421,-0.228C0.485,-0.219 0.489,-0.188 0.489,-0.153C0.489,-0.113 0.488,-0.074 0.335,-0.074C0.201,-0.074 0.166,-0.087 0.166,-0.176L0.034,-0.176C0.035,0.003 0.099,0.036 0.331,0.036C0.527,0.036 0.618,0.002 0.618,-0.151C0.618,-0.295 0.549,-0.327 0.454,-0.339C0.39,-0.347 0.286,-0.353 0.231,-0.36C0.19,-0.365 0.171,-0.382 0.171,-0.422C0.171,-0.479 0.201,-0.497 0.32,-0.497C0.435,-0.497 0.463,-0.484 0.467,-0.418L0.467,-0.411L0.597,-0.411Z" style="fill:rgb(25,34,45);fill-rule:nonzero;"/>
            </g>
            <g transform="matrix(15.058639,0,0,15.058639,400.694611,25.152064)">
                <path d="M0.371,0.034C0.552,0.034 0.634,0.004 0.654,-0.148C0.656,-0.161 0.658,-0.174 0.658,-0.188L0.526,-0.188C0.519,-0.111 0.507,-0.08 0.375,-0.08C0.362,-0.08 0.35,-0.079 0.338,-0.079C0.317,-0.079 0.297,-0.08 0.278,-0.082C0.193,-0.09 0.174,-0.114 0.174,-0.252L0.654,-0.252C0.654,-0.279 0.655,-0.311 0.655,-0.343C0.655,-0.475 0.649,-0.578 0.472,-0.601C0.448,-0.604 0.418,-0.605 0.388,-0.606C0.373,-0.606 0.359,-0.607 0.344,-0.607C0.087,-0.607 0.042,-0.543 0.042,-0.28C0.047,-0.035 0.081,0.029 0.331,0.034L0.371,0.034ZM0.175,-0.354C0.175,-0.48 0.22,-0.493 0.337,-0.493C0.349,-0.493 0.362,-0.494 0.375,-0.494C0.488,-0.494 0.527,-0.476 0.527,-0.388C0.527,-0.376 0.526,-0.364 0.526,-0.354L0.175,-0.354Z" style="fill:rgb(25,34,45);fill-rule:nonzero;"/>
            </g>
            <g transform="matrix(15.058639,0,0,15.058639,411.235579,25.152064)">
                <path d="M0.648,-0.359C0.647,-0.377 0.647,-0.403 0.646,-0.419C0.632,-0.569 0.557,-0.606 0.356,-0.606C0.104,-0.606 0.042,-0.57 0.042,-0.279C0.042,-0.055 0.083,0.019 0.25,0.032C0.279,0.034 0.314,0.035 0.355,0.035C0.606,0.035 0.644,-0.028 0.651,-0.233L0.517,-0.233C0.517,-0.103 0.49,-0.082 0.352,-0.082C0.19,-0.082 0.175,-0.11 0.175,-0.28C0.175,-0.44 0.185,-0.488 0.339,-0.488L0.359,-0.488C0.463,-0.488 0.506,-0.471 0.515,-0.395C0.516,-0.385 0.516,-0.371 0.517,-0.359L0.648,-0.359Z" style="fill:rgb(25,34,45);fill-rule:nonzero;"/>
            </g>
            <g transform="matrix(15.058639,0,0,15.058639,421.671409,25.152064)">
                <path d="M0.642,0.02L0.642,-0.59L0.507,-0.59L0.507,-0.213C0.507,-0.133 0.466,-0.089 0.351,-0.089L0.336,-0.089C0.252,-0.093 0.198,-0.099 0.198,-0.202L0.198,-0.591L0.062,-0.591L0.062,-0.175C0.062,0.015 0.203,0.029 0.317,0.029L0.333,0.029C0.453,0.029 0.494,-0 0.509,-0.043L0.509,0.019L0.642,0.02Z" style="fill:rgb(25,34,45);fill-rule:nonzero;"/>
            </g>
            <g transform="matrix(15.058639,0,0,15.058639,432.378564,25.152064)">
                <path d="M0.201,0.019L0.201,-0.352C0.201,-0.432 0.246,-0.474 0.417,-0.474C0.445,-0.474 0.474,-0.473 0.496,-0.471L0.496,-0.599C0.466,-0.601 0.426,-0.601 0.401,-0.601C0.287,-0.601 0.231,-0.584 0.202,-0.529L0.201,-0.591L0.068,-0.591L0.068,0.019L0.201,0.019Z" style="fill:rgb(25,34,45);fill-rule:nonzero;"/>
            </g>
            <g transform="matrix(15.058639,0,0,15.058639,440.163325,25.152064)">
                <path d="M0.371,0.034C0.552,0.034 0.634,0.004 0.654,-0.148C0.656,-0.161 0.658,-0.174 0.658,-0.188L0.526,-0.188C0.519,-0.111 0.507,-0.08 0.375,-0.08C0.362,-0.08 0.35,-0.079 0.338,-0.079C0.317,-0.079 0.297,-0.08 0.278,-0.082C0.193,-0.09 0.174,-0.114 0.174,-0.252L0.654,-0.252C0.654,-0.279 0.655,-0.311 0.655,-0.343C0.655,-0.475 0.649,-0.578 0.472,-0.601C0.448,-0.604 0.418,-0.605 0.388,-0.606C0.373,-0.606 0.359,-0.607 0.344,-0.607C0.087,-0.607 0.042,-0.543 0.042,-0.28C0.047,-0.035 0.081,0.029 0.331,0.034L0.371,0.034ZM0.175,-0.354C0.175,-0.48 0.22,-0.493 0.337,-0.493C0.349,-0.493 0.362,-0.494 0.375,-0.494C0.488,-0.494 0.527,-0.476 0.527,-0.388C0.527,-0.376 0.526,-0.364 0.526,-0.354L0.175,-0.354Z" style="fill:rgb(25,34,45);fill-rule:nonzero;"/>
            </g>
            <g transform="matrix(15.058639,0,0,15.058639,450.704294,25.152064)">
                <path d="M0.049,0.18C0.163,0.18 0.22,0.116 0.22,0.009L0.22,-0.146L0.045,-0.146L0.045,0.008L0.13,0.008C0.13,0.049 0.118,0.095 0.049,0.095L0.049,0.18Z" style="fill:rgb(25,34,45);fill-rule:nonzero;"/>
            </g>
            <g transform="matrix(15.058639,0,0,15.058639,273.794871,39.169042)">
                <path d="M0.641,0.02C0.628,-0.032 0.624,-0.071 0.624,-0.115L0.624,-0.409C0.624,-0.578 0.528,-0.601 0.361,-0.605L0.341,-0.605C0.155,-0.605 0.067,-0.563 0.061,-0.422L0.195,-0.422L0.195,-0.428C0.195,-0.432 0.195,-0.438 0.197,-0.443C0.206,-0.483 0.242,-0.493 0.338,-0.493L0.361,-0.493C0.488,-0.493 0.499,-0.46 0.499,-0.415C0.499,-0.393 0.499,-0.372 0.498,-0.368C0.489,-0.367 0.289,-0.363 0.219,-0.355C0.149,-0.347 0.037,-0.326 0.037,-0.152L0.037,-0.146C0.044,-0.007 0.1,0.031 0.292,0.031C0.393,0.031 0.471,0.019 0.505,-0.02C0.508,-0.006 0.509,0.006 0.514,0.019L0.641,0.02ZM0.5,-0.178C0.5,-0.138 0.492,-0.081 0.321,-0.081C0.193,-0.081 0.163,-0.102 0.163,-0.162C0.163,-0.233 0.218,-0.243 0.252,-0.247C0.316,-0.254 0.445,-0.257 0.5,-0.258L0.5,-0.178Z" style="fill:rgb(25,34,45);fill-rule:nonzero;"/>
            </g>
            <g transform="matrix(15.058639,0,0,15.058639,284.125563,39.169042)">
                <path d="M0.646,0.02L0.646,-0.396C0.646,-0.565 0.542,-0.6 0.405,-0.602L0.386,-0.602C0.298,-0.602 0.223,-0.589 0.2,-0.528L0.2,-0.592L0.066,-0.592L0.066,0.019L0.202,0.019L0.202,-0.359C0.202,-0.477 0.299,-0.483 0.375,-0.483C0.479,-0.48 0.51,-0.449 0.51,-0.371L0.51,0.019L0.646,0.02Z" style="fill:rgb(25,34,45);fill-rule:nonzero;"/>
            </g>
            <g transform="matrix(15.058639,0,0,15.058639,294.802194,39.169042)">
                <path d="M0.654,0.02L0.654,-0.782L0.521,-0.782L0.521,-0.544C0.494,-0.584 0.458,-0.607 0.319,-0.607C0.065,-0.607 0.041,-0.508 0.041,-0.298C0.041,-0.157 0.045,0.019 0.232,0.034C0.254,0.035 0.288,0.037 0.322,0.037C0.462,0.037 0.495,0.015 0.522,-0.031L0.522,0.019L0.654,0.02ZM0.344,-0.489C0.487,-0.489 0.516,-0.468 0.52,-0.307C0.52,-0.116 0.51,-0.08 0.335,-0.08C0.204,-0.084 0.174,-0.1 0.174,-0.297C0.174,-0.458 0.193,-0.481 0.328,-0.489L0.344,-0.489Z" style="fill:rgb(25,34,45);fill-rule:nonzero;"/>
            </g>
            <g transform="matrix(15.058639,0,0,15.058639,339.172843,39.169042)">
                <path d="M0.042,-0.279C0.048,0.001 0.098,0.038 0.36,0.038C0.613,0.038 0.663,-0.013 0.663,-0.288C0.658,-0.59 0.581,-0.608 0.362,-0.608C0.11,-0.608 0.042,-0.583 0.042,-0.279ZM0.376,-0.076C0.364,-0.076 0.352,-0.075 0.341,-0.075C0.195,-0.075 0.172,-0.095 0.172,-0.28C0.172,-0.484 0.197,-0.487 0.336,-0.493C0.348,-0.493 0.36,-0.494 0.372,-0.494C0.51,-0.494 0.534,-0.475 0.534,-0.284C0.534,-0.103 0.519,-0.076 0.376,-0.076Z" style="fill:rgb(25,34,45);fill-rule:nonzero;"/>
            </g>
            <g transform="matrix(15.058639,0,0,15.058639,349.864171,39.169042)">
                <path d="M0.199,0.177L0.199,-0.041C0.231,0.006 0.277,0.022 0.395,0.022C0.651,0.022 0.678,-0.075 0.678,-0.28C0.678,-0.411 0.674,-0.588 0.488,-0.603C0.466,-0.604 0.432,-0.606 0.398,-0.606C0.252,-0.606 0.23,-0.582 0.198,-0.534L0.198,-0.591L0.066,-0.591L0.066,0.177L0.199,0.177ZM0.2,-0.295C0.2,-0.462 0.218,-0.489 0.374,-0.489L0.39,-0.489C0.539,-0.489 0.547,-0.425 0.547,-0.289C0.547,-0.132 0.527,-0.1 0.397,-0.096C0.39,-0.096 0.383,-0.095 0.375,-0.095C0.216,-0.095 0.207,-0.15 0.2,-0.269L0.2,-0.295Z" style="fill:rgb(25,34,45);fill-rule:nonzero;"/>
            </g>
            <g transform="matrix(15.058639,0,0,15.058639,360.781602,39.169042)">
                <path d="M0.371,0.034C0.552,0.034 0.634,0.004 0.654,-0.148C0.656,-0.161 0.658,-0.174 0.658,-0.188L0.526,-0.188C0.519,-0.111 0.507,-0.08 0.375,-0.08C0.362,-0.08 0.35,-0.079 0.338,-0.079C0.317,-0.079 0.297,-0.08 0.278,-0.082C0.193,-0.09 0.174,-0.114 0.174,-0.252L0.654,-0.252C0.654,-0.279 0.655,-0.311 0.655,-0.343C0.655,-0.475 0.649,-0.578 0.472,-0.601C0.448,-0.604 0.418,-0.605 0.388,-0.606C0.373,-0.606 0.359,-0.607 0.344,-0.607C0.087,-0.607 0.042,-0.543 0.042,-0.28C0.047,-0.035 0.081,0.029 0.331,0.034L0.371,0.034ZM0.175,-0.354C0.175,-0.48 0.22,-0.493 0.337,-0.493C0.349,-0.493 0.362,-0.494 0.375,-0.494C0.488,-0.494 0.527,-0.476 0.527,-0.388C0.527,-0.376 0.526,-0.364 0.526,-0.354L0.175,-0.354Z" style="fill:rgb(25,34,45);fill-rule:nonzero;"/>
            </g>
            <g transform="matrix(15.058639,0,0,15.058639,371.322571,39.169042)">
                <path d="M0.646,0.02L0.646,-0.396C0.646,-0.565 0.542,-0.6 0.405,-0.602L0.386,-0.602C0.298,-0.602 0.223,-0.589 0.2,-0.528L0.2,-0.592L0.066,-0.592L0.066,0.019L0.202,0.019L0.202,-0.359C0.202,-0.477 0.299,-0.483 0.375,-0.483C0.479,-0.48 0.51,-0.449 0.51,-0.371L0.51,0.019L0.646,0.02Z" style="fill:rgb(25,34,45);fill-rule:nonzero;"/>
            </g>
            <g transform="matrix(15.058639,0,0,15.058639,415.49764,39.169042)">
                <path d="M0.742,0.019L0.895,-0.591L0.76,-0.591C0.76,-0.591 0.687,-0.274 0.684,-0.26C0.677,-0.228 0.655,-0.095 0.655,-0.095C0.654,-0.089 0.653,-0.085 0.652,-0.085C0.65,-0.085 0.649,-0.089 0.648,-0.095C0.648,-0.095 0.625,-0.231 0.618,-0.261C0.616,-0.272 0.54,-0.591 0.54,-0.591L0.366,-0.591L0.293,-0.252C0.286,-0.221 0.267,-0.119 0.261,-0.093C0.26,-0.089 0.259,-0.088 0.258,-0.088C0.257,-0.088 0.256,-0.089 0.256,-0.092C0.251,-0.121 0.234,-0.217 0.226,-0.254L0.15,-0.591L0.014,-0.591L0.166,0.019L0.344,0.019C0.344,0.019 0.419,-0.319 0.421,-0.33C0.424,-0.343 0.449,-0.468 0.45,-0.485C0.45,-0.489 0.452,-0.491 0.453,-0.491C0.454,-0.491 0.455,-0.489 0.456,-0.485C0.458,-0.468 0.481,-0.351 0.485,-0.331C0.488,-0.321 0.564,0.019 0.564,0.019L0.742,0.019Z" style="fill:rgb(25,34,45);fill-rule:nonzero;"/>
            </g>
            <g transform="matrix(15.058639,0,0,15.058639,429.231197,39.169042)">
                <path d="M0.371,0.034C0.552,0.034 0.634,0.004 0.654,-0.148C0.656,-0.161 0.658,-0.174 0.658,-0.188L0.526,-0.188C0.519,-0.111 0.507,-0.08 0.375,-0.08C0.362,-0.08 0.35,-0.079 0.338,-0.079C0.317,-0.079 0.297,-0.08 0.278,-0.082C0.193,-0.09 0.174,-0.114 0.174,-0.252L0.654,-0.252C0.654,-0.279 0.655,-0.311 0.655,-0.343C0.655,-0.475 0.649,-0.578 0.472,-0.601C0.448,-0.604 0.418,-0.605 0.388,-0.606C0.373,-0.606 0.359,-0.607 0.344,-0.607C0.087,-0.607 0.042,-0.543 0.042,-0.28C0.047,-0.035 0.081,0.029 0.331,0.034L0.371,0.034ZM0.175,-0.354C0.175,-0.48 0.22,-0.493 0.337,-0.493C0.349,-0.493 0.362,-0.494 0.375,-0.494C0.488,-0.494 0.527,-0.476 0.527,-0.388C0.527,-0.376 0.526,-0.364 0.526,-0.354L0.175,-0.354Z" style="fill:rgb(25,34,45);fill-rule:nonzero;"/>
            </g>
            <g transform="matrix(15.058639,0,0,15.058639,439.772165,39.169042)">
                <path d="M0.198,0.019L0.197,-0.033C0.232,0.022 0.276,0.037 0.392,0.037C0.507,0.037 0.647,0.036 0.671,-0.157C0.676,-0.194 0.678,-0.247 0.678,-0.298C0.678,-0.516 0.647,-0.607 0.401,-0.607C0.253,-0.607 0.225,-0.582 0.198,-0.544L0.198,-0.782L0.065,-0.782L0.065,0.019L0.198,0.019ZM0.376,-0.08C0.203,-0.08 0.199,-0.127 0.199,-0.307C0.203,-0.46 0.226,-0.488 0.371,-0.488L0.394,-0.488C0.532,-0.484 0.545,-0.444 0.545,-0.289C0.545,-0.109 0.519,-0.084 0.397,-0.08L0.376,-0.08Z" style="fill:rgb(25,34,45);fill-rule:nonzero;"/>
            </g>
            <g transform="matrix(15.058639,0,0,15.058639,450.704294,39.169042)">
                <path d="M0.22,0.021L0.22,-0.148L0.047,-0.148L0.047,0.02L0.22,0.021Z" style="fill:rgb(25,34,45);fill-rule:nonzero;"/>
            </g>
        </g>
    </g>
</svg>
