<svg xmlns="http://www.w3.org/2000/svg" xmlns:xlink="http://www.w3.org/1999/xlink" width="100%" height="100%" version="1.1" viewBox="0 0 468 55" xml:space="preserve" style="fill-rule:evenodd;clip-rule:evenodd;stroke-linejoin:round;stroke-miterlimit:2"><g id="Layer2"><rect width="468" height="55" x="0" y="0" style="fill:#9d00ff"/></g><g id="Layer1"><clipPath id="_clip1"><rect id="wordmark_small.svg" width="208.415" height="34.258" x="3.749" y="18.21"/></clipPath><g clip-path="url(#_clip1)"><g><g><g><g><g><path d="M28.354,50.41l-0,-6.808l-16.909,-0l-0,-23.421l-7.696,-0l-0,30.192l24.605,0.037Z" style="fill:#fff;fill-rule:nonzero"/></g><g><path d="M39.861,50.373l-0,-10.138l12.58,-20.091l-9.102,-0l-7.289,13.209l-7.289,-13.209l-8.954,-0l12.284,20.091l-0,10.138l7.77,-0Z" style="fill:#fff;fill-rule:nonzero"/></g></g><g><path d="M58.814,26.577c-0.846,-0.301 -1.289,-0.574 -1.702,-0.778c-0.321,-0.159 -0.611,-0.321 -0.87,-0.484c-1.023,-0.644 -1.547,-1.291 -1.46,-1.706c0.291,-1.39 1.178,-2.062 2.236,-2.372c0.337,-0.099 1.371,-0.551 1.814,-1.292c0.066,-0.11 0.275,-0.047 0.623,0.179c0.169,0.11 -0.115,0.787 -0.284,0.978c-0.134,0.151 2.056,0.332 4.642,-1.245c2.27,-1.384 2.747,-0.992 4.243,-0.929c1.922,0.08 2.634,0.229 3.889,-0.082c0.787,-0.194 1.455,-0.77 1.631,-0.611c0.229,0.207 -0.172,1.356 -1.016,1.892c-0.94,0.597 -2.167,0.488 -2.167,0.488c0,0 1.966,0.447 2.912,0.356c1.797,-0.172 2.975,-0.657 2.971,-0.492c-0.002,0.074 -0.578,1.182 -1.977,1.849c-0.726,0.346 -1.202,0.308 -1.202,0.308c-0,0 2.089,1.389 3.561,3.823c1.839,3.043 2.294,5.516 2.232,7.649c-0.075,2.534 -1.011,4.23 -1.553,4.797c-0.414,0.433 -0.642,0.232 -0.622,0.156c1.128,-4.238 -1.928,-8.019 -1.957,-8.014c-0.255,0.044 1.171,3.317 -0.638,5.157c-2.257,2.294 -7.114,2.845 -8.705,5.759c-2.014,3.688 0.207,7.952 2.781,10.092c0.73,0.607 -5.542,0.792 -9.278,-5.053c-2.006,-3.139 -2.314,-8.579 -0.951,-10.179c-0.207,0.059 -2.277,3.062 -3.203,5.696c-0.912,2.594 -1.255,5.634 -1.046,7.023c0.01,0.07 -0.269,-0.488 -0.526,-1.243c-0.27,-0.79 -0.521,-1.805 -0.663,-2.989c-0.254,-2.119 0.104,-4.493 0.698,-6.2c0.825,-2.367 1.813,-4.464 4.969,-5.888c0.077,-0.104 -4.814,-0.188 -7.646,6.314c-0.404,0.928 -0.696,-4.284 2.549,-7.158c2.876,-2.549 9.732,-1.787 11.68,-1.669c4.091,0.248 3.605,-1.33 3.361,-2.09c-0.157,-0.489 -0.84,-0.883 -1.881,-0.868c-0.687,0.009 -0.759,0.196 -1.967,0.118c-1.363,-0.087 -2.39,-0.284 -2.583,-0.322c0.461,1.389 2.166,1.429 2.146,1.6c-0.048,0.411 -2.797,0.397 -5.041,-2.57Z" style="fill:#fff"/></g><g><g><path d="M111.714,51.039l-12.062,-30.192l-8.695,-0l-12.062,30.155l8.436,-0l1.739,-4.736l12.432,-0l1.776,4.736l8.436,0.037Zm-12.395,-11.581l-8.066,-0l4.033,-10.767l4.033,10.767Z" style="fill:#fff;fill-rule:nonzero"/></g><g><path d="M127.365,51.039l0,-23.273l10.397,-0l0,-6.956l-28.638,-0l0,6.956l10.397,-0l0,23.273l7.844,-0Z" style="fill:#fff;fill-rule:nonzero"/></g><g><path d="M169.62,51.039c-0.407,-2.405 -1.406,-6.401 -2.109,-9.324c-0.518,-2.035 -1.665,-2.664 -3.108,-3.182c3.552,-1.443 3.626,-6.882 3.626,-8.362c-0.111,-3.885 -0.296,-9.287 -9.473,-9.287l-18.056,-0l0,30.118l7.696,-0l0,-10.212l8.177,-0c1.776,-0 3.33,0.259 3.959,3.256c0.481,2.294 1.258,5.18 1.517,6.956l7.771,0.037Zm-12.581,-23.347c2.923,-0 3.33,1.258 3.33,3.071c0,2.035 -0.481,3.256 -3.589,3.256l-8.584,-0l0,-6.327l8.843,-0Z" style="fill:#fff;fill-rule:nonzero"/></g><g><path d="M180.091,51.076l-0,-30.266l-7.881,-0l-0,30.229l7.881,0.037Z" style="fill:#fff;fill-rule:nonzero"/></g><g><path d="M211.134,30.8c-0,-1.48 -0,-2.664 -0.074,-3.626c-0.666,-7.03 -7.696,-7.03 -13.505,-7.03c-9.583,-0 -14.097,0.74 -14.097,9.509c-0,4.699 0.592,8.029 6.808,8.621c2.886,0.259 9.287,0.814 11.951,1.147c1.332,0.185 1.887,0.814 2.072,1.554c0.074,0.259 0.111,0.555 0.111,0.888c-0,2.257 -0.999,2.96 -6.475,2.96c-5.217,-0 -6.031,-0.74 -6.327,-1.443c-0.185,-0.407 -0.185,-0.629 -0.222,-2.812l-7.733,-0c-0,0.999 -0.037,1.887 -0.037,2.701c-0,5.291 1.702,8.584 13.838,8.584c2.072,-0 4.107,-0.148 6.179,-0.37c6.845,-0.703 8.436,-3.626 8.436,-9.472c-0,-6.364 -2.183,-8.399 -8.14,-9.176c-3.256,-0.444 -8.288,-0.777 -10.249,-1.036c-1.998,-0.259 -2.812,-0.629 -2.812,-2.331c-0,-2.072 1.887,-2.368 5.069,-2.368l1.665,-0c5.809,-0 5.883,0.777 5.883,3.7l7.659,-0Z" style="fill:#fff;fill-rule:nonzero"/></g></g></g></g></g></g><path d="M9.53,14.533c-0.293,0.027 -0.72,0.054 -1.106,0.054l-0.186,-0c-0.973,-0.027 -1.239,-0.2 -1.239,-1.159l-0,-4.329l2.517,-0l0,-1.306l-2.504,0l0,-2.011l-1.492,-0l0,2.011l-1.771,0l-0,1.306l1.771,-0l0,4.608c0,1.665 0.999,2.198 2.678,2.225c0.426,-0 1.065,-0.013 1.332,-0.04l-0,-1.359Z" style="fill:#fff;fill-rule:nonzero"/><path d="M18.401,15.839l-0,-5.488c-0,-1.945 -0.999,-2.704 -3.423,-2.704c-1.186,-0 -2.225,0.16 -2.558,0.946l0,-3.357l-1.465,-0l-0,10.589l1.478,0l0,-4.995c0,-0.892 0.254,-1.878 2.411,-1.878c1.532,0 2.065,0.453 2.065,1.678l-0,5.195l1.492,0.014Z" style="fill:#fff;fill-rule:nonzero"/><path d="M22.117,6.781l0,-1.532l-1.891,0l-0,1.532l1.891,-0Zm-0.186,9.044l-0,-7.938l-1.506,-0l0,7.938l1.506,0Z" style="fill:#fff;fill-rule:nonzero"/><path d="M27.059,14.826c-1.425,0 -2.105,-0.106 -2.105,-1.532l-1.478,0c0.013,2.465 1.132,2.758 3.823,2.758c2.491,-0 3.703,-0.44 3.703,-2.424c-0,-1.759 -0.853,-2.238 -2.172,-2.411c-0.852,-0.107 -2.171,-0.187 -2.89,-0.28c-0.559,-0.08 -0.932,-0.253 -0.932,-0.973c-0,-1.025 0.799,-1.172 2.171,-1.172c1.345,0.04 2.038,0.08 2.104,1.239l0,0.093l1.426,0c-0.04,-1.931 -0.493,-2.477 -3.49,-2.557c-3.144,-0 -3.543,1.012 -3.61,2.318c0,1.292 0.386,2.011 1.891,2.251c0.76,0.12 2.172,0.199 3.024,0.306c0.706,0.093 0.933,0.36 1.026,0.759c0.013,0.107 0.026,0.253 0.026,0.413c0,0.773 -0.266,1.212 -2.211,1.212l-0.306,0Z" style="fill:#fff;fill-rule:nonzero"/><path d="M45.734,15.825l2.144,-8.018l-1.492,-0l-1.158,4.648c-0.107,0.427 -0.44,2.132 -0.44,2.132c-0.013,0.053 -0.027,0.079 -0.04,0.079c-0.013,0 -0.027,-0.026 -0.027,-0.079c0,-0 -0.359,-1.759 -0.466,-2.145l-1.199,-4.649l-1.918,0l-1.119,4.756c-0.106,0.426 -0.373,1.571 -0.492,2.064c-0.014,0.027 -0.027,0.04 -0.027,0.04c-0.027,0 -0.04,-0.026 -0.04,-0.026c-0.093,-0.547 -0.32,-1.612 -0.44,-2.105c-0.04,-0.2 -1.172,-4.729 -1.172,-4.729l-1.492,0l2.132,8.032l1.931,0l1.199,-4.808c0.026,-0.12 0.426,-1.918 0.439,-2.078c0,-0.027 0.014,-0.04 0.027,-0.04c0.027,-0 0.04,0.013 0.04,0.04c0.013,0.16 0.413,1.878 0.453,2.051l1.212,4.835l1.945,0Z" style="fill:#fff;fill-rule:nonzero"/><path d="M56.696,12.136c0,-0.32 0.013,-0.68 0.013,-1.026c0,-2.451 -0.346,-3.517 -3.822,-3.517c-3.344,0.094 -4.13,0.44 -4.13,4.303c0,3.836 1.159,4.102 4.21,4.102c2.264,0 3.423,-0.319 3.729,-2.317c0.04,-0.213 0.053,-0.44 0.053,-0.64l-1.438,0c-0.107,1.519 -0.693,1.692 -2.438,1.692l-0.306,0c-0.306,0 -0.586,-0.013 -0.839,-0.04c-1.186,-0.106 -1.545,-0.533 -1.545,-2.557l6.513,-0Zm-6.5,-1.159c0.146,-1.892 0.4,-2.118 2.704,-2.118c1.518,-0 2.424,0.093 2.424,1.572c0,0.173 -0.013,0.359 -0.013,0.546l-5.115,-0Z" style="fill:#fff;fill-rule:nonzero"/><path d="M59.773,15.825l0,-0.692c0.386,0.639 0.893,0.919 2.558,0.919c0.519,-0 1.065,-0.027 1.398,-0.054c2.424,-0.199 2.478,-2.584 2.478,-4.355c-0,-3.17 -0.68,-4.076 -3.597,-4.076c-1.318,-0 -2.277,0.066 -2.837,0.906l0,-3.237l-1.452,-0l0,10.589l1.452,0Zm2.651,-1.079c-2.464,0 -2.651,-0.546 -2.651,-2.89c0,-2.131 0.027,-2.97 2.611,-2.97c2.118,-0 2.357,0.639 2.357,2.85c0,2.624 -0.452,3.01 -2.317,3.01Z" style="fill:#fff;fill-rule:nonzero"/><path d="M70.962,14.826c-1.425,0 -2.105,-0.106 -2.105,-1.532l-1.478,0c0.013,2.465 1.132,2.758 3.823,2.758c2.491,-0 3.703,-0.44 3.703,-2.424c-0,-1.759 -0.853,-2.238 -2.171,-2.411c-0.853,-0.107 -2.172,-0.187 -2.891,-0.28c-0.559,-0.08 -0.932,-0.253 -0.932,-0.973c-0,-1.025 0.799,-1.172 2.171,-1.172c1.345,0.04 2.038,0.08 2.104,1.239l0,0.093l1.426,0c-0.04,-1.931 -0.493,-2.477 -3.49,-2.557c-3.144,-0 -3.543,1.012 -3.61,2.318c0,1.292 0.386,2.011 1.892,2.251c0.759,0.12 2.171,0.199 3.023,0.306c0.706,0.093 0.933,0.36 1.026,0.759c0.013,0.107 0.026,0.253 0.026,0.413c0,0.773 -0.266,1.212 -2.211,1.212l-0.306,0Z" style="fill:#fff;fill-rule:nonzero"/><path d="M78.208,6.781l0,-1.532l-1.891,0l-0,1.532l1.891,-0Zm-0.186,9.044l-0,-7.938l-1.506,-0l0,7.938l1.506,0Z" style="fill:#fff;fill-rule:nonzero"/><path d="M85.121,14.533c-0.293,0.027 -0.719,0.054 -1.105,0.054l-0.187,-0c-0.972,-0.027 -1.239,-0.2 -1.239,-1.159l0,-4.329l2.518,-0l-0,-1.306l-2.504,0l-0,-2.011l-1.492,-0l-0,2.011l-1.772,0l0,1.306l1.772,-0l-0,4.608c-0,1.665 0.999,2.198 2.677,2.225c0.426,-0 1.066,-0.013 1.332,-0.04l0,-1.359Z" style="fill:#fff;fill-rule:nonzero"/><path d="M94.126,12.136c-0,-0.32 0.013,-0.68 0.013,-1.026c-0,-2.451 -0.346,-3.517 -3.823,-3.517c-3.343,0.094 -4.129,0.44 -4.129,4.303c-0,3.836 1.159,4.102 4.209,4.102c2.264,0 3.423,-0.319 3.73,-2.317c0.04,-0.213 0.053,-0.44 0.053,-0.64l-1.439,0c-0.106,1.519 -0.692,1.692 -2.437,1.692l-0.307,0c-0.306,0 -0.586,-0.013 -0.839,-0.04c-1.185,-0.106 -1.545,-0.533 -1.545,-2.557l6.514,-0Zm-6.501,-1.159c0.147,-1.892 0.4,-2.118 2.704,-2.118c1.519,-0 2.425,0.093 2.425,1.572c-0,0.173 -0.014,0.359 -0.014,0.546l-5.115,-0Z" style="fill:#fff;fill-rule:nonzero"/><path d="M102.158,6.781l-0,-1.532l-1.892,0l0,1.532l1.892,-0Zm-0.187,9.044l0,-7.938l-1.505,-0l0,7.938l1.505,0Z" style="fill:#fff;fill-rule:nonzero"/><path d="M107.099,14.826c-1.425,0 -2.104,-0.106 -2.104,-1.532l-1.479,0c0.014,2.465 1.133,2.758 3.823,2.758c2.491,-0 3.703,-0.44 3.703,-2.424c0,-1.759 -0.852,-2.238 -2.171,-2.411c-0.852,-0.107 -2.171,-0.187 -2.89,-0.28c-0.56,-0.08 -0.933,-0.253 -0.933,-0.973c0,-1.025 0.799,-1.172 2.171,-1.172c1.346,0.04 2.038,0.08 2.105,1.239l-0,0.093l1.425,0c-0.04,-1.931 -0.493,-2.477 -3.49,-2.557c-3.143,-0 -3.543,1.012 -3.609,2.318c-0,1.292 0.386,2.011 1.891,2.251c0.759,0.12 2.171,0.199 3.024,0.306c0.706,0.093 0.932,0.36 1.025,0.759c0.014,0.107 0.027,0.253 0.027,0.413c-0,0.773 -0.266,1.212 -2.211,1.212l-0.307,0Z" style="fill:#fff;fill-rule:nonzero"/><path d="M118.608,18.21l0,-3.224c0.44,0.666 1.092,0.906 2.784,0.906c2.93,-0 3.636,-0.893 3.636,-3.983c0,-1.465 0,-4.062 -2.477,-4.262c-0.307,-0.027 -0.799,-0.054 -1.279,-0.054c-1.505,0 -2.158,0.174 -2.677,0.973l0.013,-0.759l-1.452,-0l0,10.403l1.452,-0Zm2.491,-3.637c-2.358,0 -2.438,-0.919 -2.491,-2.797c0,-1.971 0.173,-2.584 1.172,-2.757c0.426,-0.08 0.893,-0.12 1.319,-0.12l0.146,-0c1.985,-0 2.331,0.573 2.331,2.864c0,2.477 -0.452,2.81 -2.331,2.81l-0.146,0Z" style="fill:#fff;fill-rule:nonzero"/><path d="M130.463,16.065c3.357,0 3.916,-0.852 3.916,-4.276c0,-0.799 -0.093,-1.731 -0.293,-2.504c-0.386,-1.452 -1.479,-1.718 -3.623,-1.718c-3.064,-0 -4.129,0.24 -4.129,4.342c-0,3.703 0.959,4.156 4.129,4.156Zm-0.213,-1.252c-0.32,-0 -0.613,-0.013 -0.879,-0.04c-1.279,-0.133 -1.612,-0.586 -1.612,-2.864c-0,-2.77 0.293,-3.077 2.651,-3.077c2.211,0 2.557,0.28 2.557,2.984c0,2.438 -0.173,2.997 -2.504,2.997l-0.213,-0Z" style="fill:#fff;fill-rule:nonzero"/><path d="M144.662,15.825l2.145,-8.018l-1.492,-0l-1.159,4.648c-0.107,0.427 -0.44,2.132 -0.44,2.132c-0.013,0.053 -0.026,0.079 -0.04,0.079c-0.013,0 -0.026,-0.026 -0.026,-0.079c-0,-0 -0.36,-1.759 -0.466,-2.145l-1.199,-4.649l-1.918,0l-1.119,4.756c-0.107,0.426 -0.373,1.571 -0.493,2.064c-0.013,0.027 -0.027,0.04 -0.027,0.04c-0.026,0 -0.04,-0.026 -0.04,-0.026c-0.093,-0.547 -0.319,-1.612 -0.439,-2.105c-0.04,-0.2 -1.172,-4.729 -1.172,-4.729l-1.492,0l2.131,8.032l1.931,0l1.199,-4.808c0.027,-0.12 0.426,-1.918 0.44,-2.078c-0,-0.027 0.013,-0.04 0.026,-0.04c0.027,-0 0.04,0.013 0.04,0.04c0.014,0.16 0.413,1.878 0.453,2.051l1.212,4.835l1.945,0Z" style="fill:#fff;fill-rule:nonzero"/><path d="M155.625,12.136c-0,-0.32 0.013,-0.68 0.013,-1.026c-0,-2.451 -0.346,-3.517 -3.823,-3.517c-3.343,0.094 -4.129,0.44 -4.129,4.303c-0,3.836 1.159,4.102 4.209,4.102c2.264,0 3.423,-0.319 3.73,-2.317c0.04,-0.213 0.053,-0.44 0.053,-0.64l-1.439,0c-0.106,1.519 -0.692,1.692 -2.437,1.692l-0.307,0c-0.306,0 -0.586,-0.013 -0.839,-0.04c-1.185,-0.106 -1.545,-0.533 -1.545,-2.557l6.514,-0Zm-6.501,-1.159c0.147,-1.892 0.4,-2.118 2.704,-2.118c1.519,-0 2.425,0.093 2.425,1.572c-0,0.173 -0.014,0.359 -0.014,0.546l-5.115,-0Z" style="fill:#fff;fill-rule:nonzero"/><path d="M158.755,15.839l-0,-5.102c-0,-1.439 1.239,-1.678 2.824,-1.678c0.413,-0 0.839,0.013 1.159,0.04l-0,-1.412c-0.413,-0.027 -0.973,-0.027 -1.319,-0.027c-1.412,0 -2.265,0.213 -2.651,0.972l0,-0.839l-1.465,0l-0,8.046l1.452,-0Z" style="fill:#fff;fill-rule:nonzero"/><path d="M171.582,12.136c0,-0.32 0.013,-0.68 0.013,-1.026c0,-2.451 -0.346,-3.517 -3.822,-3.517c-3.344,0.094 -4.13,0.44 -4.13,4.303c0,3.836 1.159,4.102 4.209,4.102c2.265,0 3.424,-0.319 3.73,-2.317c0.04,-0.213 0.053,-0.44 0.053,-0.64l-1.438,0c-0.107,1.519 -0.693,1.692 -2.438,1.692l-0.306,0c-0.307,0 -0.586,-0.013 -0.839,-0.04c-1.186,-0.106 -1.545,-0.533 -1.545,-2.557l6.513,-0Zm-6.5,-1.159c0.146,-1.892 0.399,-2.118 2.704,-2.118c1.518,-0 2.424,0.093 2.424,1.572c0,0.173 -0.013,0.359 -0.013,0.546l-5.115,-0Z" style="fill:#fff;fill-rule:nonzero"/><path d="M180.76,15.839l-0,-10.603l-1.452,-0l-0,3.237c-0.48,-0.72 -1.199,-0.906 -2.864,-0.906c-2.957,-0 -3.57,1.012 -3.57,4.076c0,1.798 0.08,4.156 2.491,4.355c0.333,0.027 0.879,0.054 1.399,0.054c1.292,-0 2.038,-0.107 2.557,-0.919l-0.013,0.692l1.452,0.014Zm-4.09,-1.093c-1.904,0 -2.331,-0.386 -2.331,-3.077c0,-2.397 0.36,-2.73 2.425,-2.783c2.277,-0 2.544,0.532 2.544,2.97c-0,2.025 -0.093,2.89 -2.398,2.89l-0.24,0Z" style="fill:#fff;fill-rule:nonzero"/><path d="M188.752,15.825l-0,-0.692c0.386,0.639 0.892,0.919 2.557,0.919c0.52,-0 1.066,-0.027 1.399,-0.054c2.424,-0.199 2.477,-2.584 2.477,-4.355c0,-3.17 -0.679,-4.076 -3.596,-4.076c-1.319,-0 -2.278,0.066 -2.837,0.906l-0,-3.237l-1.452,-0l-0,10.589l1.452,0Zm2.65,-1.079c-2.464,0 -2.65,-0.546 -2.65,-2.89c-0,-2.131 0.026,-2.97 2.61,-2.97c2.118,-0 2.358,0.639 2.358,2.85c0,2.624 -0.453,3.01 -2.318,3.01Z" style="fill:#fff;fill-rule:nonzero"/><path d="M199.248,15.812c-0.306,0.666 -0.866,0.826 -1.412,0.826c-0.093,-0 -0.679,-0.013 -1.265,-0.08l-0,1.292c0.586,0.053 0.959,0.08 1.292,0.08c1.198,-0 1.958,-0.36 2.464,-1.279c0.12,-0.213 0.32,-0.546 0.426,-0.799l3.423,-8.045l-1.665,-0l-2.264,5.847l-2.478,-5.861l-1.665,0l3.437,7.38l-0.293,0.639Z" style="fill:#fff;fill-rule:nonzero"/><path d="M195.688,-33.392c-15.699,7.198 -25.469,9.377 -33.897,12.095c-6.552,2.113 -12.742,3.767 -18.494,4.991c-22.746,4.839 -38.644,2.944 -43.02,-3.96c-14.622,-23.072 -11.393,-44.241 -0.958,-62.705c3.316,-5.868 11.514,-25.976 7.701,-42.139c-0.568,-2.408 3.159,-4.327 10.98,-5.877c3.82,-0.757 8.969,12.401 9.198,17.3c0.181,3.872 32.811,-22.999 47.339,-79.421c12.752,-49.529 24.581,-50.526 46.063,-69.721c27.603,-24.664 39.415,-32.16 52.563,-53.276c8.243,-13.239 9.732,-30.127 14.289,-30.296c5.947,-0.221 15.81,21.007 11.362,39.712c-4.957,20.844 -23.344,35.802 -23.344,35.802c-0,-0 33.114,-20.2 44.942,-34.141c22.463,-26.472 32.223,-48.954 34.373,-46.636c0.968,1.043 7.879,24.064 -2.469,52.018c-5.371,14.507 -12.452,20.376 -12.452,20.376c0,-0 47.446,-8.858 100.381,4.987c66.166,17.307 105.609,45.301 133.351,75.574c32.941,35.947 42.786,71.896 42.908,86.979c0.093,11.526 -5.753,11.814 -6.486,10.505c-41.262,-73.592 -134.126,-84.755 -134.454,-84.304c-2.932,4.034 60.633,30.041 60.345,79.683c-0.358,61.91 -59.979,134.637 -42.85,196.164c21.683,77.883 109.486,106.922 173.695,101.922c18.197,-1.417 -65.836,85.238 -195.729,54.709c-69.761,-16.395 -146.953,-87.306 -149.628,-127.647c-2.064,3.589 9.653,72.763 32.2,121.512c22.208,48.015 58.258,94.545 79.746,110.905c1.094,0.833 -10.25,-3.129 -23.914,-10.087c-14.316,-7.291 -31.396,-17.928 -49.227,-32.353c-31.91,-25.814 -58.818,-63.36 -73.503,-94.87c-20.372,-43.713 -34.869,-85.886 -10.41,-147.85c-0.354,-2.47 -68.946,61.957 -20.813,189.621c6.872,18.227 -67.037,-49.755 -60.826,-132.918c5.506,-73.724 110.289,-155.149 138.737,-179.642c59.739,-51.435 31.89,-66.691 18.337,-73.9c-8.722,-4.639 -23.439,-0.92 -37.604,13.25c-9.344,9.348 -7.828,12.883 -25.533,28.013c-19.981,17.074 -36.783,28.124 -39.95,30.197c24.97,12.969 49.038,-9.332 51.048,-6.72c4.863,6.319 -33.248,42.979 -103.997,32.148Z" style="fill:#fff;fill-opacity:.43"/><g><g><path d="M0.268,0.019l0,-0.476l0.171,0l-0,-0.119l-0.171,0l0,-0.026c0,-0.076 0.057,-0.077 0.115,-0.077c0.023,0 0.05,-0.001 0.053,-0.001l0.001,-0.116l-0.076,0c-0.144,0 -0.226,0.034 -0.227,0.173c-0.001,0.001 -0.001,0.006 -0.001,0.012c0,0.013 0.001,0.032 0.001,0.035l-0.118,-0l0,0.119l0.118,-0l0,0.476l0.134,-0Z" style="fill:#9d00ff;fill-rule:nonzero" transform="matrix(1.13052,0,0,1.13052,-46.7539,-7.73465) matrix(13.3201,0,0,13.3201,283.541,29.0899)"/></g><g><path d="M0.042,-0.279c0.006,0.28 0.056,0.317 0.318,0.317c0.253,0 0.303,-0.051 0.303,-0.326c-0.005,-0.302 -0.082,-0.32 -0.301,-0.32c-0.252,0 -0.32,0.025 -0.32,0.329Zm0.334,0.203c-0.012,0 -0.024,0.001 -0.035,0.001c-0.146,0 -0.169,-0.02 -0.169,-0.205c-0,-0.204 0.025,-0.207 0.164,-0.213c0.012,0 0.024,-0.001 0.036,-0.001c0.138,0 0.162,0.019 0.162,0.21c-0,0.181 -0.015,0.208 -0.158,0.208Z" style="fill:#9d00ff;fill-rule:nonzero" transform="matrix(1.13052,0,0,1.13052,-46.7539,-7.73465) matrix(13.3201,0,0,13.3201,289.682,29.0899)"/></g><g><path d="M0.201,0.019l0,-0.371c0,-0.08 0.045,-0.122 0.216,-0.122c0.028,-0 0.057,0.001 0.079,0.003l-0,-0.128c-0.03,-0.002 -0.07,-0.002 -0.095,-0.002c-0.114,0 -0.17,0.017 -0.199,0.072l-0.001,-0.062l-0.133,0l0,0.61l0.133,-0Z" style="fill:#9d00ff;fill-rule:nonzero" transform="matrix(1.13052,0,0,1.13052,-46.7539,-7.73465) matrix(13.3201,0,0,13.3201,299.139,29.0899)"/></g><g><path d="M0.641,0.02c-0.013,-0.052 -0.017,-0.091 -0.017,-0.135l0,-0.294c0,-0.169 -0.096,-0.192 -0.263,-0.196l-0.02,0c-0.186,0 -0.274,0.042 -0.28,0.183l0.134,0l0,-0.006c0,-0.004 0,-0.01 0.002,-0.015c0.009,-0.04 0.045,-0.05 0.141,-0.05l0.023,0c0.127,0 0.138,0.033 0.138,0.078c0,0.022 0,0.043 -0.001,0.047c-0.009,0.001 -0.209,0.005 -0.279,0.013c-0.07,0.008 -0.182,0.029 -0.182,0.203l0,0.006c0.007,0.139 0.063,0.177 0.255,0.177c0.101,-0 0.179,-0.012 0.213,-0.051c0.003,0.014 0.004,0.026 0.009,0.039l0.127,0.001Zm-0.141,-0.198c0,0.04 -0.008,0.097 -0.179,0.097c-0.128,-0 -0.158,-0.021 -0.158,-0.081c0,-0.071 0.055,-0.081 0.089,-0.085c0.064,-0.007 0.193,-0.01 0.248,-0.011l0,0.08Z" style="fill:#9d00ff;fill-rule:nonzero" transform="matrix(1.13052,0,0,1.13052,-46.7539,-7.73465) matrix(13.3201,0,0,13.3201,310.621,29.0899)"/></g><g><path d="M0.199,0.177l0,-0.218c0.032,0.047 0.078,0.063 0.196,0.063c0.256,0 0.283,-0.097 0.283,-0.302c0,-0.131 -0.004,-0.308 -0.19,-0.323c-0.022,-0.001 -0.056,-0.003 -0.09,-0.003c-0.146,0 -0.168,0.024 -0.2,0.072l0,-0.057l-0.132,0l0,0.768l0.133,0Zm0.001,-0.472c0,-0.167 0.018,-0.194 0.174,-0.194l0.016,0c0.149,0 0.157,0.064 0.157,0.2c0,0.157 -0.02,0.189 -0.15,0.193c-0.007,0 -0.014,0.001 -0.022,0.001c-0.159,0 -0.168,-0.055 -0.175,-0.174l0,-0.026Z" style="fill:#9d00ff;fill-rule:nonzero" transform="matrix(1.13052,0,0,1.13052,-46.7539,-7.73465) matrix(13.3201,0,0,13.3201,324.354,29.0899)"/></g><g><path d="M0.201,0.019l0,-0.371c0,-0.08 0.045,-0.122 0.216,-0.122c0.028,-0 0.057,0.001 0.079,0.003l-0,-0.128c-0.03,-0.002 -0.07,-0.002 -0.095,-0.002c-0.114,0 -0.17,0.017 -0.199,0.072l-0.001,-0.062l-0.133,0l0,0.61l0.133,-0Z" style="fill:#9d00ff;fill-rule:nonzero" transform="matrix(1.13052,0,0,1.13052,-46.7539,-7.73465) matrix(13.3201,0,0,13.3201,334.011,29.0899)"/></g><g><path d="M0.223,-0.656l0,-0.125l-0.163,0l0,0.125l0.163,0Zm-0.012,0.675l0,-0.599l-0.137,0l0,0.599l0.137,-0Z" style="fill:#9d00ff;fill-rule:nonzero" transform="matrix(1.13052,0,0,1.13052,-46.7539,-7.73465) matrix(13.3201,0,0,13.3201,340.898,29.0899)"/></g><g><path d="M0.426,0.019l0.24,-0.61l-0.149,0l-0.108,0.289c-0.006,0.016 -0.07,0.204 -0.07,0.204c0,-0 -0.06,-0.185 -0.068,-0.206l-0.112,-0.287l-0.147,0l0.243,0.61l0.171,-0Z" style="fill:#9d00ff;fill-rule:nonzero" transform="matrix(1.13052,0,0,1.13052,-46.7539,-7.73465) matrix(13.3201,0,0,13.3201,344.681,29.0899)"/></g><g><path d="M0.641,0.02c-0.013,-0.052 -0.017,-0.091 -0.017,-0.135l0,-0.294c0,-0.169 -0.096,-0.192 -0.263,-0.196l-0.02,0c-0.186,0 -0.274,0.042 -0.28,0.183l0.134,0l0,-0.006c0,-0.004 0,-0.01 0.002,-0.015c0.009,-0.04 0.045,-0.05 0.141,-0.05l0.023,0c0.127,0 0.138,0.033 0.138,0.078c0,0.022 0,0.043 -0.001,0.047c-0.009,0.001 -0.209,0.005 -0.279,0.013c-0.07,0.008 -0.182,0.029 -0.182,0.203l0,0.006c0.007,0.139 0.063,0.177 0.255,0.177c0.101,-0 0.179,-0.012 0.213,-0.051c0.003,0.014 0.004,0.026 0.009,0.039l0.127,0.001Zm-0.141,-0.198c0,0.04 -0.008,0.097 -0.179,0.097c-0.128,-0 -0.158,-0.021 -0.158,-0.081c0,-0.071 0.055,-0.081 0.089,-0.085c0.064,-0.007 0.193,-0.01 0.248,-0.011l0,0.08Z" style="fill:#9d00ff;fill-rule:nonzero" transform="matrix(1.13052,0,0,1.13052,-46.7539,-7.73465) matrix(13.3201,0,0,13.3201,353.725,29.0899)"/></g><g><path d="M0.47,-0.101c-0.026,0.002 -0.058,0.005 -0.089,0.005l-0.011,0c-0.072,-0.002 -0.085,-0.021 -0.085,-0.081l0,-0.294l0.184,-0l0,-0.12l-0.183,0l0,-0.152l-0.137,0l0,0.152l-0.13,0l0,0.12l0.13,-0l0,0.327c0,0.129 0.08,0.169 0.212,0.171l0.021,-0c0.032,-0 0.069,-0.001 0.088,-0.003l0,-0.125Z" style="fill:#9d00ff;fill-rule:nonzero" transform="matrix(1.13052,0,0,1.13052,-46.7539,-7.73465) matrix(13.3201,0,0,13.3201,362.863,29.0899)"/></g><g><path d="M0.371,0.034c0.181,0 0.263,-0.03 0.283,-0.182c0.002,-0.013 0.004,-0.026 0.004,-0.04l-0.132,0c-0.007,0.077 -0.019,0.108 -0.151,0.108c-0.013,0 -0.025,0.001 -0.037,0.001c-0.021,0 -0.041,-0.001 -0.06,-0.003c-0.085,-0.008 -0.104,-0.032 -0.104,-0.17l0.48,0c0,-0.027 0.001,-0.059 0.001,-0.091c0,-0.132 -0.006,-0.235 -0.183,-0.258c-0.024,-0.003 -0.054,-0.004 -0.084,-0.005c-0.015,0 -0.029,-0.001 -0.044,-0.001c-0.257,0 -0.302,0.064 -0.302,0.327c0.005,0.245 0.039,0.309 0.289,0.314l0.04,-0Zm-0.196,-0.388c0,-0.126 0.045,-0.139 0.162,-0.139c0.012,0 0.025,-0.001 0.038,-0.001c0.113,0 0.152,0.018 0.152,0.106c0,0.012 -0.001,0.024 -0.001,0.034l-0.351,0Z" style="fill:#9d00ff;fill-rule:nonzero" transform="matrix(1.13052,0,0,1.13052,-46.7539,-7.73465) matrix(13.3201,0,0,13.3201,369.523,29.0899)"/></g><g><path d="M0.049,0.18c0.114,0 0.171,-0.064 0.171,-0.171l-0,-0.155l-0.175,0l-0,0.154l0.085,0c0,0.041 -0.012,0.087 -0.081,0.087l0,0.085Z" style="fill:#9d00ff;fill-rule:nonzero" transform="matrix(1.13052,0,0,1.13052,-46.7539,-7.73465) matrix(13.3201,0,0,13.3201,378.847,29.0899)"/></g><g><path d="M0.597,-0.411c-0.004,-0.114 -0.008,-0.198 -0.272,-0.198c-0.239,0 -0.276,0.068 -0.281,0.179l0,0.016c0,0.076 0.023,0.142 0.142,0.162c0.059,0.009 0.17,0.016 0.235,0.024c0.064,0.009 0.068,0.04 0.068,0.075c0,0.04 -0.001,0.079 -0.154,0.079c-0.134,0 -0.169,-0.013 -0.169,-0.102l-0.132,0c0.001,0.179 0.065,0.212 0.297,0.212c0.196,0 0.287,-0.034 0.287,-0.187c0,-0.144 -0.069,-0.176 -0.164,-0.188c-0.064,-0.008 -0.168,-0.014 -0.223,-0.021c-0.041,-0.005 -0.06,-0.022 -0.06,-0.062c0,-0.057 0.03,-0.075 0.149,-0.075c0.115,0 0.143,0.013 0.147,0.079l0,0.007l0.13,0Z" style="fill:#9d00ff;fill-rule:nonzero" transform="matrix(1.13052,0,0,1.13052,-46.7539,-7.73465) matrix(13.3201,0,0,13.3201,387.065,29.0899)"/></g><g><path d="M0.371,0.034c0.181,0 0.263,-0.03 0.283,-0.182c0.002,-0.013 0.004,-0.026 0.004,-0.04l-0.132,0c-0.007,0.077 -0.019,0.108 -0.151,0.108c-0.013,0 -0.025,0.001 -0.037,0.001c-0.021,0 -0.041,-0.001 -0.06,-0.003c-0.085,-0.008 -0.104,-0.032 -0.104,-0.17l0.48,0c0,-0.027 0.001,-0.059 0.001,-0.091c0,-0.132 -0.006,-0.235 -0.183,-0.258c-0.024,-0.003 -0.054,-0.004 -0.084,-0.005c-0.015,0 -0.029,-0.001 -0.044,-0.001c-0.257,0 -0.302,0.064 -0.302,0.327c0.005,0.245 0.039,0.309 0.289,0.314l0.04,-0Zm-0.196,-0.388c0,-0.126 0.045,-0.139 0.162,-0.139c0.012,0 0.025,-0.001 0.038,-0.001c0.113,0 0.152,0.018 0.152,0.106c0,0.012 -0.001,0.024 -0.001,0.034l-0.351,0Z" style="fill:#9d00ff;fill-rule:nonzero" transform="matrix(1.13052,0,0,1.13052,-46.7539,-7.73465) matrix(13.3201,0,0,13.3201,395.79,29.0899)"/></g><g><path d="M0.648,-0.359c-0.001,-0.018 -0.001,-0.044 -0.002,-0.06c-0.014,-0.15 -0.089,-0.187 -0.29,-0.187c-0.252,0 -0.314,0.036 -0.314,0.327c-0,0.224 0.041,0.298 0.208,0.311c0.029,0.002 0.064,0.003 0.105,0.003c0.251,-0 0.289,-0.063 0.296,-0.268l-0.134,-0c0,0.13 -0.027,0.151 -0.165,0.151c-0.162,-0 -0.177,-0.028 -0.177,-0.198c0,-0.16 0.01,-0.208 0.164,-0.208l0.02,0c0.104,0 0.147,0.017 0.156,0.093c0.001,0.01 0.001,0.024 0.002,0.036l0.131,0Z" style="fill:#9d00ff;fill-rule:nonzero" transform="matrix(1.13052,0,0,1.13052,-46.7539,-7.73465) matrix(13.3201,0,0,13.3201,405.114,29.0899)"/></g><g><path d="M0.642,0.02l0,-0.61l-0.135,0l0,0.377c0,0.08 -0.041,0.124 -0.156,0.124l-0.015,-0c-0.084,-0.004 -0.138,-0.01 -0.138,-0.113l0,-0.389l-0.136,0l0,0.416c0,0.19 0.141,0.204 0.255,0.204l0.016,-0c0.12,-0 0.161,-0.029 0.176,-0.072l0,0.062l0.133,0.001Z" style="fill:#9d00ff;fill-rule:nonzero" transform="matrix(1.13052,0,0,1.13052,-46.7539,-7.73465) matrix(13.3201,0,0,13.3201,414.345,29.0899)"/></g><g><path d="M0.201,0.019l0,-0.371c0,-0.08 0.045,-0.122 0.216,-0.122c0.028,-0 0.057,0.001 0.079,0.003l-0,-0.128c-0.03,-0.002 -0.07,-0.002 -0.095,-0.002c-0.114,0 -0.17,0.017 -0.199,0.072l-0.001,-0.062l-0.133,0l0,0.61l0.133,-0Z" style="fill:#9d00ff;fill-rule:nonzero" transform="matrix(1.13052,0,0,1.13052,-46.7539,-7.73465) matrix(13.3201,0,0,13.3201,423.816,29.0899)"/></g><g><path d="M0.371,0.034c0.181,0 0.263,-0.03 0.283,-0.182c0.002,-0.013 0.004,-0.026 0.004,-0.04l-0.132,0c-0.007,0.077 -0.019,0.108 -0.151,0.108c-0.013,0 -0.025,0.001 -0.037,0.001c-0.021,0 -0.041,-0.001 -0.06,-0.003c-0.085,-0.008 -0.104,-0.032 -0.104,-0.17l0.48,0c0,-0.027 0.001,-0.059 0.001,-0.091c0,-0.132 -0.006,-0.235 -0.183,-0.258c-0.024,-0.003 -0.054,-0.004 -0.084,-0.005c-0.015,0 -0.029,-0.001 -0.044,-0.001c-0.257,0 -0.302,0.064 -0.302,0.327c0.005,0.245 0.039,0.309 0.289,0.314l0.04,-0Zm-0.196,-0.388c0,-0.126 0.045,-0.139 0.162,-0.139c0.012,0 0.025,-0.001 0.038,-0.001c0.113,0 0.152,0.018 0.152,0.106c0,0.012 -0.001,0.024 -0.001,0.034l-0.351,0Z" style="fill:#9d00ff;fill-rule:nonzero" transform="matrix(1.13052,0,0,1.13052,-46.7539,-7.73465) matrix(13.3201,0,0,13.3201,430.702,29.0899)"/></g><g><path d="M0.049,0.18c0.114,0 0.171,-0.064 0.171,-0.171l-0,-0.155l-0.175,0l-0,0.154l0.085,0c0,0.041 -0.012,0.087 -0.081,0.087l0,0.085Z" style="fill:#9d00ff;fill-rule:nonzero" transform="matrix(1.13052,0,0,1.13052,-46.7539,-7.73465) matrix(13.3201,0,0,13.3201,440.026,29.0899)"/></g><g><path d="M0.641,0.02c-0.013,-0.052 -0.017,-0.091 -0.017,-0.135l0,-0.294c0,-0.169 -0.096,-0.192 -0.263,-0.196l-0.02,0c-0.186,0 -0.274,0.042 -0.28,0.183l0.134,0l0,-0.006c0,-0.004 0,-0.01 0.002,-0.015c0.009,-0.04 0.045,-0.05 0.141,-0.05l0.023,0c0.127,0 0.138,0.033 0.138,0.078c0,0.022 0,0.043 -0.001,0.047c-0.009,0.001 -0.209,0.005 -0.279,0.013c-0.07,0.008 -0.182,0.029 -0.182,0.203l0,0.006c0.007,0.139 0.063,0.177 0.255,0.177c0.101,-0 0.179,-0.012 0.213,-0.051c0.003,0.014 0.004,0.026 0.009,0.039l0.127,0.001Zm-0.141,-0.198c0,0.04 -0.008,0.097 -0.179,0.097c-0.128,-0 -0.158,-0.021 -0.158,-0.081c0,-0.071 0.055,-0.081 0.089,-0.085c0.064,-0.007 0.193,-0.01 0.248,-0.011l0,0.08Z" style="fill:#9d00ff;fill-rule:nonzero" transform="matrix(1.13052,0,0,1.13052,-46.7539,-7.73465) matrix(13.3201,0,0,13.3201,283.541,41.4886)"/></g><g><path d="M0.646,0.02l0,-0.416c0,-0.169 -0.104,-0.204 -0.241,-0.206l-0.019,0c-0.088,0 -0.163,0.013 -0.186,0.074l0,-0.064l-0.134,0l0,0.611l0.136,0l0,-0.378c0,-0.118 0.097,-0.124 0.173,-0.124c0.104,0.003 0.135,0.034 0.135,0.112l0,0.39l0.136,0.001Z" style="fill:#9d00ff;fill-rule:nonzero" transform="matrix(1.13052,0,0,1.13052,-46.7539,-7.73465) matrix(13.3201,0,0,13.3201,292.679,41.4886)"/></g><g><path d="M0.654,0.02l0,-0.802l-0.133,0l0,0.238c-0.027,-0.04 -0.063,-0.063 -0.202,-0.063c-0.254,0 -0.278,0.099 -0.278,0.309c0,0.141 0.004,0.317 0.191,0.332c0.022,0.001 0.056,0.003 0.09,0.003c0.14,-0 0.173,-0.022 0.2,-0.068l0,0.05l0.132,0.001Zm-0.31,-0.509c0.143,0 0.172,0.021 0.176,0.182c0,0.191 -0.01,0.227 -0.185,0.227c-0.131,-0.004 -0.161,-0.02 -0.161,-0.217c0,-0.161 0.019,-0.184 0.154,-0.192l0.016,0Z" style="fill:#9d00ff;fill-rule:nonzero" transform="matrix(1.13052,0,0,1.13052,-46.7539,-7.73465) matrix(13.3201,0,0,13.3201,302.123,41.4886)"/></g><g><path d="M0.042,-0.279c0.006,0.28 0.056,0.317 0.318,0.317c0.253,0 0.303,-0.051 0.303,-0.326c-0.005,-0.302 -0.082,-0.32 -0.301,-0.32c-0.252,0 -0.32,0.025 -0.32,0.329Zm0.334,0.203c-0.012,0 -0.024,0.001 -0.035,0.001c-0.146,0 -0.169,-0.02 -0.169,-0.205c-0,-0.204 0.025,-0.207 0.164,-0.213c0.012,0 0.024,-0.001 0.036,-0.001c0.138,0 0.162,0.019 0.162,0.21c-0,0.181 -0.015,0.208 -0.158,0.208Z" style="fill:#9d00ff;fill-rule:nonzero" transform="matrix(1.13052,0,0,1.13052,-46.7539,-7.73465) matrix(13.3201,0,0,13.3201,341.371,41.4886)"/></g><g><path d="M0.199,0.177l0,-0.218c0.032,0.047 0.078,0.063 0.196,0.063c0.256,0 0.283,-0.097 0.283,-0.302c0,-0.131 -0.004,-0.308 -0.19,-0.323c-0.022,-0.001 -0.056,-0.003 -0.09,-0.003c-0.146,0 -0.168,0.024 -0.2,0.072l0,-0.057l-0.132,0l0,0.768l0.133,0Zm0.001,-0.472c0,-0.167 0.018,-0.194 0.174,-0.194l0.016,0c0.149,0 0.157,0.064 0.157,0.2c0,0.157 -0.02,0.189 -0.15,0.193c-0.007,0 -0.014,0.001 -0.022,0.001c-0.159,0 -0.168,-0.055 -0.175,-0.174l0,-0.026Z" style="fill:#9d00ff;fill-rule:nonzero" transform="matrix(1.13052,0,0,1.13052,-46.7539,-7.73465) matrix(13.3201,0,0,13.3201,350.828,41.4886)"/></g><g><path d="M0.371,0.034c0.181,0 0.263,-0.03 0.283,-0.182c0.002,-0.013 0.004,-0.026 0.004,-0.04l-0.132,0c-0.007,0.077 -0.019,0.108 -0.151,0.108c-0.013,0 -0.025,0.001 -0.037,0.001c-0.021,0 -0.041,-0.001 -0.06,-0.003c-0.085,-0.008 -0.104,-0.032 -0.104,-0.17l0.48,0c0,-0.027 0.001,-0.059 0.001,-0.091c0,-0.132 -0.006,-0.235 -0.183,-0.258c-0.024,-0.003 -0.054,-0.004 -0.084,-0.005c-0.015,0 -0.029,-0.001 -0.044,-0.001c-0.257,0 -0.302,0.064 -0.302,0.327c0.005,0.245 0.039,0.309 0.289,0.314l0.04,-0Zm-0.196,-0.388c0,-0.126 0.045,-0.139 0.162,-0.139c0.012,0 0.025,-0.001 0.038,-0.001c0.113,0 0.152,0.018 0.152,0.106c0,0.012 -0.001,0.024 -0.001,0.034l-0.351,0Z" style="fill:#9d00ff;fill-rule:nonzero" transform="matrix(1.13052,0,0,1.13052,-46.7539,-7.73465) matrix(13.3201,0,0,13.3201,360.485,41.4886)"/></g><g><path d="M0.646,0.02l0,-0.416c0,-0.169 -0.104,-0.204 -0.241,-0.206l-0.019,0c-0.088,0 -0.163,0.013 -0.186,0.074l0,-0.064l-0.134,0l0,0.611l0.136,0l0,-0.378c0,-0.118 0.097,-0.124 0.173,-0.124c0.104,0.003 0.135,0.034 0.135,0.112l0,0.39l0.136,0.001Z" style="fill:#9d00ff;fill-rule:nonzero" transform="matrix(1.13052,0,0,1.13052,-46.7539,-7.73465) matrix(13.3201,0,0,13.3201,369.809,41.4886)"/></g><g><path d="M0.742,0.019l0.153,-0.61l-0.135,0c0,0 -0.073,0.317 -0.076,0.331c-0.007,0.032 -0.029,0.165 -0.029,0.165c-0.001,0.006 -0.002,0.01 -0.003,0.01c-0.002,-0 -0.003,-0.004 -0.004,-0.01c0,-0 -0.023,-0.136 -0.03,-0.166c-0.002,-0.011 -0.078,-0.33 -0.078,-0.33l-0.174,0l-0.073,0.339c-0.007,0.031 -0.026,0.133 -0.032,0.159c-0.001,0.004 -0.002,0.005 -0.003,0.005c-0.001,-0 -0.002,-0.001 -0.002,-0.004c-0.005,-0.029 -0.022,-0.125 -0.03,-0.162l-0.076,-0.337l-0.136,0l0.152,0.61l0.178,-0c0,-0 0.075,-0.338 0.077,-0.349c0.003,-0.013 0.028,-0.138 0.029,-0.155c0,-0.004 0.002,-0.006 0.003,-0.006c0.001,0 0.002,0.002 0.003,0.006c0.002,0.017 0.025,0.134 0.029,0.154c0.003,0.01 0.079,0.35 0.079,0.35l0.178,-0Z" style="fill:#9d00ff;fill-rule:nonzero" transform="matrix(1.13052,0,0,1.13052,-46.7539,-7.73465) matrix(13.3201,0,0,13.3201,408.884,41.4886)"/></g><g><path d="M0.371,0.034c0.181,0 0.263,-0.03 0.283,-0.182c0.002,-0.013 0.004,-0.026 0.004,-0.04l-0.132,0c-0.007,0.077 -0.019,0.108 -0.151,0.108c-0.013,0 -0.025,0.001 -0.037,0.001c-0.021,0 -0.041,-0.001 -0.06,-0.003c-0.085,-0.008 -0.104,-0.032 -0.104,-0.17l0.48,0c0,-0.027 0.001,-0.059 0.001,-0.091c0,-0.132 -0.006,-0.235 -0.183,-0.258c-0.024,-0.003 -0.054,-0.004 -0.084,-0.005c-0.015,0 -0.029,-0.001 -0.044,-0.001c-0.257,0 -0.302,0.064 -0.302,0.327c0.005,0.245 0.039,0.309 0.289,0.314l0.04,-0Zm-0.196,-0.388c0,-0.126 0.045,-0.139 0.162,-0.139c0.012,0 0.025,-0.001 0.038,-0.001c0.113,0 0.152,0.018 0.152,0.106c0,0.012 -0.001,0.024 -0.001,0.034l-0.351,0Z" style="fill:#9d00ff;fill-rule:nonzero" transform="matrix(1.13052,0,0,1.13052,-46.7539,-7.73465) matrix(13.3201,0,0,13.3201,421.032,41.4886)"/></g><g><path d="M0.198,0.019l-0.001,-0.052c0.035,0.055 0.079,0.07 0.195,0.07c0.115,-0 0.255,-0.001 0.279,-0.194c0.005,-0.037 0.007,-0.09 0.007,-0.141c0,-0.218 -0.031,-0.309 -0.277,-0.309c-0.148,0 -0.176,0.025 -0.203,0.063l0,-0.238l-0.133,0l0,0.801l0.133,-0Zm0.178,-0.099c-0.173,-0 -0.177,-0.047 -0.177,-0.227c0.004,-0.153 0.027,-0.181 0.172,-0.181l0.023,0c0.138,0.004 0.151,0.044 0.151,0.199c0,0.18 -0.026,0.205 -0.148,0.209l-0.021,-0Z" style="fill:#9d00ff;fill-rule:nonzero" transform="matrix(1.13052,0,0,1.13052,-46.7539,-7.73465) matrix(13.3201,0,0,13.3201,430.356,41.4886)"/></g><g><path d="M0.22,0.021l0,-0.169l-0.173,0l0,0.168l0.173,0.001Z" style="fill:#9d00ff;fill-rule:nonzero" transform="matrix(1.13052,0,0,1.13052,-46.7539,-7.73465) matrix(13.3201,0,0,13.3201,440.026,41.4886)"/></g></g></g></svg>