<svg xmlns="http://www.w3.org/2000/svg" xmlns:svg="http://www.w3.org/2000/svg" xmlns:xlink="http://www.w3.org/1999/xlink" id="svg1" width="88" height="31" version="1.1" viewBox="0 0 88 31" xml:space="preserve"><g id="layer2" transform="translate(-620)"><rect style="fill:#1e90ff;fill-opacity:1;stroke-width:.377953;stroke-miterlimit:2;paint-order:stroke markers fill" id="rect6" width="88" height="31" x="620" y="0"/></g><g id="layer1" transform="translate(-620,-1.0000003)"><g id="g33" transform="translate(-432,17.000003)"><path style="fill:#fff;fill-opacity:1;stroke-width:.377953;stroke-miterlimit:2;paint-order:stroke markers fill" id="path27" d="m 160,159.99999 v 192 h 64 v 0 -64 h 64 v 64 h 64 v -192 h -64 v 64 h -64 v -64 z"/><path style="fill:#fff;fill-opacity:.8;stroke-width:.377953;stroke-miterlimit:2;paint-order:stroke markers fill" id="path28" d="m 160,159.99999 32,-32 h 64 l -32,32 h -64"/><path style="fill:#fff;fill-opacity:.8;stroke-width:.377953;stroke-miterlimit:2;paint-order:stroke markers fill" id="path29" d="m 288,159.99999 32,-32 h 64 l -32,32 h -64"/><path style="fill:#fff;fill-opacity:.8;stroke-width:.377953;stroke-miterlimit:2;paint-order:stroke markers fill" id="path30" d="m 224,223.99999 32,-32 h 32 v 32 h -64"/><path style="fill:#fff;fill-opacity:.6;stroke-width:.377953;stroke-miterlimit:2;paint-order:stroke markers fill" id="path31" d="m 256,127.99999 v 64 l -32,32 v -64 l 32,-32"/><path style="fill:#fff;fill-opacity:.6;stroke-width:.377953;stroke-miterlimit:2;paint-order:stroke markers fill" id="path32" d="m 224,351.99999 32,-32 v -32 h -32 v 64"/><path style="fill:#fff;fill-opacity:.6;stroke-width:.377953;stroke-miterlimit:2;paint-order:stroke markers fill" id="path33" d="m 352,351.99999 32,-32 v -192 l -32,32 v 192"/></g><use id="use36" x="0" y="0" transform="matrix(0.09375,0,0,0.09375,679.5,-7.5937504)" xlink:href="#g33"/></g></svg>