<?xml version="1.0" encoding="UTF-8" standalone="no"?>
<!-- Created with Inkscape (http://www.inkscape.org/) -->

<svg
   width="88"
   height="31"
   viewBox="0 0 88 31.000001"
   version="1.1"
   id="svg1"
   xml:space="preserve"
   xmlns:xlink="http://www.w3.org/1999/xlink"
   xmlns="http://www.w3.org/2000/svg"
   xmlns:svg="http://www.w3.org/2000/svg"><defs
     id="defs1" /><g
     id="layer2"
     transform="translate(-620)"><rect
       style="fill:#1e90ff;fill-opacity:1;stroke-width:0.377953;stroke-miterlimit:2;paint-order:stroke markers fill"
       id="rect6"
       width="88"
       height="31"
       x="620"
       y="0" /></g><g
     id="layer1"
     transform="translate(-620,-1.0000003)"><g
       id="g33"
       transform="translate(-432,17.000003)"><path
         style="fill:#ffffff;fill-opacity:1;stroke-width:0.377953;stroke-miterlimit:2;paint-order:stroke markers fill"
         d="m 160,159.99999 v 192 h 64 v 0 -64 h 64 v 64 h 64 v -192 h -64 v 64 h -64 v -64 z"
         id="path27" /><path
         style="fill:#ffffff;fill-opacity:0.8;stroke-width:0.377953;stroke-miterlimit:2;paint-order:stroke markers fill"
         d="m 160,159.99999 32,-32 h 64 l -32,32 h -64"
         id="path28" /><path
         style="fill:#ffffff;fill-opacity:0.8;stroke-width:0.377953;stroke-miterlimit:2;paint-order:stroke markers fill"
         d="m 288,159.99999 32,-32 h 64 l -32,32 h -64"
         id="path29" /><path
         style="fill:#ffffff;fill-opacity:0.8;stroke-width:0.377953;stroke-miterlimit:2;paint-order:stroke markers fill"
         d="m 224,223.99999 32,-32 h 32 v 32 h -64"
         id="path30" /><path
         style="fill:#ffffff;fill-opacity:0.6;stroke-width:0.377953;stroke-miterlimit:2;paint-order:stroke markers fill"
         d="m 256,127.99999 v 64 l -32,32 v -64 l 32,-32"
         id="path31" /><path
         style="fill:#ffffff;fill-opacity:0.6;stroke-width:0.377953;stroke-miterlimit:2;paint-order:stroke markers fill"
         d="m 224,351.99999 32,-32 v -32 h -32 v 64"
         id="path32" /><path
         style="fill:#ffffff;fill-opacity:0.6;stroke-width:0.377953;stroke-miterlimit:2;paint-order:stroke markers fill"
         d="m 352,351.99999 32,-32 v -192 l -32,32 v 192"
         id="path33" /></g><use
       x="0"
       y="0"
       xlink:href="#g33"
       id="use36"
       transform="matrix(0.09375,0,0,0.09375,679.5,-7.5937504)" /></g></svg>
